<svg xmlns="http://www.w3.org/2000/svg" width="2245" height="1819"><path stroke="#000" d="m0 0 1125 .5L0 1124.5zm1127.5 0H2245v1117.5l-764-763-25.5-26.5q-2.2.8-1.5-1.5L1312.5 185l-4-2L1164 327.5l935.5 935.5h2l143-143 .5 362.5L1131.5 370 986 514.5l968.5 969.5q2.3-.7 1.5 1.5l144.5 143.5 144.5-143.5v333l-.5.5h-1910L1245 907.5l26-27L1125.5 736 188 1674.5l145 144-333 .5.5-316 144 143L289 1502.5q-.7-2.2 1.5-1.5L1092 698.5v-2L947.5 553 0 1499.5.5 1128l143 143h2L1271 143.5zM1309 919l-145 145 749 748 4-2 141-142z" opacity="0"/><path fill="#b09434" stroke="#b09434" d="M1125.5 0 1271 143.5 145.5 1271h-2L0 1127.5v-2zm.5 1L109 1019l-31 31h-2v2l-75 75 144 143L1270 145zm182.5 182 4 2L1454 326.5q-.7 2.3 1.5 1.5l789.5 791.5-144 143 78.5-79.5 64.5-63.5L1309.5 184 1165 327.5l934.5 935.5L1164 327.5zm-178 187L2245 1483.5 2100.5 1629 1956 1485.5q.8-2.2-1.5-1.5L986 514.5zm.5 1L987 515l1114 1113 143-143-130-130q1-3-1-2l-20-20-2-2-33-33zM947.5 553 1092 696.5 948.5 554 1 1500.5 144.5 1645 1092 698.5 290.5 1501q-2.2-.7-1.5 1.5L147.5 1644l-4 2L0 1502.5v-2zm178 183L1271 880.5 333.5 1819 188 1674.5zm.5 1-85 86q-3-1-2 2l-55 55h-2v2l-792 792 143 143 937-936zm182.5 182 749.5 748.5-141.5 142.5-4 2-748.5-748.5zm.5 1-64 65-79 78 747 748 144-143z" opacity=".541"/><path fill="#af9335" stroke="#af9335" d="m1124.5 2-9 10zm3 0 2 3zm4 4 13 14zm18 18 30 31zm-52 5-23 24zm-29 29-55 56zm117 2 6 7zm-176 57-16 17zm-18 18-8 9zm278 9-54 55zm-288 1-9 10zm-26 26-23 24zm353 13-142 143zm-387 21-9 10zm286 1-17 18zm-316 29-19 20zm281 6-8 9zm-18 18-20 21zm-292 5-110 111zm257 30-15 16zm-17 17-14 15zm64 17 92 93zm-82 1-47 48zm-336 49-16 17zm283 4-19 20zm483 7 19 20zm-357 8 67 68zm-443 15-22 23zm282 5-13 14zm552 6 32 33zm-569 11-26 27zm-294 7-33 34zm897 16 44 45zm-277 10 122 123zm-361 2-59 60zm311 26 75 76zm-628 4-38 39zm1011 14 35 36zm-633 19 32 33zm-131 7-14 15zm804 14 18 19zm-1107 2-42 43zm382 4 10 11zm-19 8-48 49zm106 0 27 28zm-71 8 12 13zm747 16 26 27zm-729 2 6 7zm374 8 38 39zm-286 1 93 94zm-75 4 22 23zm-489 9-22 23zm1239 10 62 63zm-720 11 4 5zm-166 1-18 19zm617 6 115 116zm-443 1 20 21zm-570 14-79 80zm596 12 12 13zm371 5 138 139zm-354 12 10.5 10.5-21.5 21.5 20.5-21.5zm736 5 18 19zm-1012 4-40 41zm373 9 40 41zm660 8 21 22zm-779 16-27 28zm66 8 5.5 4.5-4.5-3.5-16 15zm9 8 7 8zm744 8 27 28zm-1131 1-217 218zm398 2 11 12zm-779 4-17 18zm1232 0 83 84zm-579 9-44 45zm74 0-7 8zm66 1 3 4zm89 5 27 28zm-81 3 13 14zm-830 11-68 69zm1581 4 10 11zm-733 3 3 4zm7 7 7 8zm90 6 53 54zm-79 5 6 7zm-236 7-11 12zm247 4 6 7zm738 2 23 24zm-730 6 3 4zm7 7 2 3zm4 4 19 20zm-293 4-51 52zm672 4 30 31zm374 9 128 129zm-731 5 2 3zm-1005 10-41 42zm1015 0 4 5zm450 1 51 52zm-364 1 67 68zm311 24 118 119zm-788 12-14 15zm434 6 1.5.5-16.5 15.5zm-1116 14-43 44zm1132 1 56 57zm-476 5-27 28zm438 2-11 12zm135 6 48 49zm-152 11-12 13zm-17 17-1 2zm-728 1-33 34zm285 2-25 26zm-675 13-5 6zm1984 1 19 20zm-286 1 230 231zm-427 22 22 23zm85 1 29 30zm-723 4-21 22zm1391 12 26 27zm-1702 12-44 45zm285 2-14 15zm1071 5 72 73zm-646 12 22 23zm1026 3 38 39zm-1477 6-11 12zm-13 13-73 74zm773 0 47 48zm-1075 15-66 67zm1843 17 .5 1.5-16 15zm-1015 8 53 54zm994 14-12 13zm-310 12 76 77zm-370 1 258 259zm662 5-12 13zm-1581 7-13 14zm1564 10-1 2zm-1591 17-5 6zm699 1 125 126zm-712 12-15 16zm-297 10-75 76zm271 16-11 12zm-13 13-10 11zm1469 9 10 11zm-1483 5-34 35zm1569 3 1 2zm-1608 36-14 15zm-313 26-84 85zm287 0-10 11zm964 4 38 39zm662 4 1 2zm-1639 5-20 21zm-27 27-44 45zm1046 6 42 43zm-1099 47-10 11zm1435 2 39 40zm-1748 24-43 44zm1492 7 55 56zm336 49 52 53zm-256 31 21 22zm323 36 78 79zm-256 31 47 48zm67 67 147 148z" opacity=".996"/><path fill="#b09435" stroke="#b09435" d="M1125 1q2.7-1.1 2 1.5l4 2.5v1.5l13.5 13.5 4.5 3.5 30.5 31.5 5.5 4.5 6.5 7.5 77.5 76.5-60.5 62.5-18.5 17.5-16.5 17.5-9.5 8.5-8.5 9.5-21.5 20.5-13.5 14.5-16.5 15.5q.8 2.3-1.5 1.5l-17 18-48.5 47.5-4.5 5.5-20.5 19.5-14.5 15.5-14.5 13.5-2.5 3.5-27.5 26.5-7.5 8.5-60.5 59.5-9.5 10.5-15.5 14.5L144.5 1270 1 1126.5l108-108 19.5-20.5 6.5-5.5 13.5-14.5 44.5-43.5 15.5-16.5 42.5-41.5 17.5-18.5 69.5-68.5 10.5-11.5 18.5-17.5 21.5-22.5 80.5-79.5 19.5-20.5 23.5-22.5 16.5-17.5 43.5-42.5 16.5-17.5 39.5-38.5 23.5-24.5 34.5-33.5 5.5-6.5 23.5-22.5 16.5-17.5 17.5-16.5 2.5-3.5L863 264.5l8.5-9.5 20.5-19.5 19.5-20.5 10.5-9.5 9.5-10.5 24.5-23.5 15.5-16.5 10.5-9.5q-.7-2.2 1.5-1.5l8.5-8.5V134h1.5l16.5-16.5 2.5-3.5 56.5-55.5 4.5-5.5 24.5-23.5 16.5-17.5 10.5-9.5zm184.5 183 224 225 14.5 13.5 32.5 33.5q2.3-.7 1.5 1.5l56 55 35.5 36.5 4.5 3.5 18.5 19.5 19.5 18.5 26.5 27.5 7.5 6.5 62.5 63.5 4.5 3.5 18.5 19.5 2.5 1.5 21.5 22.5 18.5 17.5 27.5 28.5 12.5 11.5 10.5 11.5 23.5 22.5 23.5 24.5 10.5 9.5L2114.5 990l3.5 2.5 19.5 20.5 20.5 19.5 26.5 27.5 7.5 6.5 38.5 39.5 12.5 11.5v2l-19.5 20.5-13.5 12.5-4.5 5.5-13.5 12.5-3.5 4.5-2.5 1.5-5.5 6.5-78.5 77.5q.8 2.3-1.5 1.5l-37.5-36.5L1832.5 994l-65.5-64.5-51.5-52.5-33.5-32.5-83.5-84.5q-2.2.8-1.5-1.5l-169-168L1305.5 467l-46.5-45.5-92.5-93.5-1.5-.5zm-179 187 26.5 25.5 67.5 68.5 30.5 29.5 75.5 76.5 30.5 29.5 38.5 39.5 35.5 34.5L1573.5 814l38.5 37.5 30.5 31.5 19.5 18.5 118.5 119.5 31.5 30.5 72.5 73.5 27.5 26.5 76.5 77.5 24.5 23.5 10.5 11.5 34.5 33.5 185 186v2L2101.5 1627h-2l-609-610-20.5-19.5-48.5-49.5-2.5-1.5-67.5-68.5-15.5-14.5-53.5-54.5-6.5-5.5-27.5-28.5-29.5-28.5-40.5-41.5-9.5-8.5-93.5-94.5-7.5-6.5-27.5-28.5-2.5-1.5-32.5-33.5-18.5-17.5zm-184 184q5.8-.7 6.5 3.5l10.5 11.5 5.5 4.5 12.5 13.5 5.5 4.5 6.5 7.5 6.5 5.5 22.5 23.5 7.5 6.5 4.5 5.5 3.5 2.5 20.5 21.5 5.5 4.5 12.5 13.5 4.5 3.5 10 11-30.5 31.5-28.5 27.5-11.5 12.5-45.5 44.5-6.5 7.5-12.5 11.5-14.5 15.5-52.5 51.5-13.5 14.5-15.5 14.5-10.5 11.5-28.5 27.5-10.5 11.5-26.5 25.5-15.5 16.5-22.5 21.5-3.5 4.5-15.5 14.5-10.5 11.5-12.5 11.5q.8 2.3-1.5 1.5l-78 79-14.5 13.5-12.5 13.5-6.5 5.5-6.5 7.5-16.5 15.5-9.5 10.5-12.5 11.5q.8 2.3-1.5 1.5l-13 14-35.5 34.5-3.5 4.5-15.5 14.5-10.5 11.5-11.5 10.5-1.5 2.5-21.5 20.5-5.5 6.5-45.5 44.5-7.5 8.5-11.5 10.5L144.5 1645 1 1500.5l59-58 33.5-34.5 85.5-84.5 31.5-32.5 76.5-75.5 46.5-47.5 67.5-66.5 10.5-11.5 45.5-44.5 33.5-34.5 34.5-33.5 4.5-5.5L748 754.5l16.5-17.5 41.5-40.5 39.5-40.5 19.5-18.5 20.5-21.5 49.5-48.5zm179 183 8.5 6.5 7.5 8.5 3.5 2.5 11.5 12.5 2.5 1.5 3.5 4.5 4.5 3.5 13.5 14.5 4.5 3.5 3.5 4.5 3.5 2.5 7.5 8.5 3.5 2.5 6.5 7.5 4.5 3.5 6.5 7.5q2.3-.7 1.5 1.5l7 6 2.5 3.5q2.3-.7 1.5 1.5l22 21 2.5 3.5 4.5 3.5q-.7 2.3 1.5 1.5l5.5 7.5L332.5 1817 190 1673.5 1085.5 777l8.5-7.5 15.5-16.5zm183 183h2l13.5 13.5 56.5 57.5 24.5 23.5 22.5 23.5 24.5 23.5q-.7 2.3 1.5 1.5l69 70 19.5 18.5 258.5 259.5 6.5 5.5 39.5 40.5 40.5 39.5 52.5 53.5 14.5 13.5 78.5 79.5 23.5 22.5v2L1913.5 1811 1746 1644.5l-47.5-48.5-45.5-44.5-21.5-22.5-24.5-23.5-55.5-56.5-37.5-36.5-42.5-43.5-3.5-2.5-38.5-39.5-8.5-7.5-125.5-126.5-13.5-12.5-53.5-54.5-39.5-38.5-22.5-23.5-1.5-.5 80-79 5.5-6.5 2.5-1.5 3.5-4.5 13.5-12.5 4.5-5.5 12.5-11.5 5.5-6.5z"/></svg>