<svg xmlns="http://www.w3.org/2000/svg" version="1.1" xmlns:xlink="http://www.w3.org/1999/xlink" width="1000" height="1000"><metadata><rdf:RDF xmlns:rdf="http://www.w3.org/1999/02/22-rdf-syntax-ns#" xmlns:dc="http://purl.org/dc/elements/1.1/"><rdf:Description><dc:creator>RealFaviconGenerator</dc:creator><dc:source>https://realfavicongenerator.net</dc:source></rdf:Description></rdf:RDF></metadata><g clip-path="url(#SvgjsClipPath1148)"><rect width="1000" height="1000" fill="#1e4035"></rect><g transform="matrix(0.35634743875278396,0,0,0.35634743875278396,100,175.902004454343)"><svg xmlns="http://www.w3.org/2000/svg" version="1.1" width="2245" height="1819" desc="Created with imagetracer.js version 1.2.6"><path fill="rgb(0,0,0)" stroke="rgb(0,0,0)" stroke-width="1" opacity="0" d="M 0 0 L 1125 0.5 L 0 1124.5 L 0 0 Z "></path><path fill="rgb(0,0,0)" stroke="rgb(0,0,0)" stroke-width="1" opacity="0" d="M 1127.5 0 L 2245 0 L 2245 1117.5 L 1481 354.5 L 1455.5 328 Q 1453.3 328.8 1454 326.5 L 1312.5 185 L 1308.5 183 L 1164 327.5 L 2099.5 1263 L 2101.5 1263 L 2244.5 1120 L 2245 1482.5 L 1131.5 370 L 986 514.5 L 1954.5 1484 Q 1956.8 1483.3 1956 1485.5 L 2100.5 1629 L 2245 1485.5 L 2245 1818.5 L 2244.5 1819 L 334.5 1819 L 1245 907.5 L 1271 880.5 L 1125.5 736 L 188 1674.5 L 333 1818.5 L 0 1819 L 0.5 1503 L 144.5 1646 L 289 1502.5 Q 288.3 1500.3 290.5 1501 L 1092 698.5 L 1092 696.5 L 947.5 553 L 0 1499.5 L 0.5 1128 L 143.5 1271 L 145.5 1271 L 1271 143.5 L 1127.5 0 Z M 1309 919 L 1164 1064 L 1913 1812 L 1917 1810 L 2058 1668 L 1309 919 Z "></path><path fill="rgb(176,148,52)" stroke="rgb(176,148,52)" stroke-width="1" opacity="0.5411764705882353" d="M 1125.5 0 L 1271 143.5 L 145.5 1271 L 143.5 1271 L 0 1127.5 L 0 1125.5 L 1125.5 0 Z M 1126 1 L 109 1019 L 78 1050 L 76 1050 L 76 1052 L 1 1127 L 145 1270 L 1270 145 L 1126 1 Z "></path><path fill="rgb(176,148,52)" stroke="rgb(176,148,52)" stroke-width="1" opacity="0.5411764705882353" d="M 1308.5 183 L 1312.5 185 L 1454 326.5 Q 1453.3 328.8 1455.5 328 L 2245 1119.5 L 2101 1262.5 L 2179.5 1183 L 2244 1119.5 L 1309.5 184 L 1165 327.5 L 2099.5 1263 L 1164 327.5 L 1308.5 183 Z "></path><path fill="rgb(176,148,52)" stroke="rgb(176,148,52)" stroke-width="1" opacity="0.5411764705882353" d="M 1130.5 370 L 2245 1483.5 L 2100.5 1629 L 1956 1485.5 Q 1956.8 1483.3 1954.5 1484 L 986 514.5 L 1130.5 370 Z M 1131 371 L 987 515 L 2101 1628 L 2244 1485 L 2114 1355 Q 2115 1352 2113 1353 L 2093 1333 L 2091 1331 L 2058 1298 L 1131 371 Z "></path><path fill="rgb(176,148,52)" stroke="rgb(176,148,52)" stroke-width="1" opacity="0.5411764705882353" d="M 947.5 553 L 1092 696.5 L 948.5 554 L 1 1500.5 L 144.5 1645 L 1092 698.5 L 290.5 1501 Q 288.3 1500.3 289 1502.5 L 147.5 1644 L 143.5 1646 L 0 1502.5 L 0 1500.5 L 947.5 553 Z "></path><path fill="rgb(176,148,52)" stroke="rgb(176,148,52)" stroke-width="1" opacity="0.5411764705882353" d="M 1125.5 736 L 1271 880.5 L 333.5 1819 L 188 1674.5 L 1125.5 736 Z M 1126 737 L 1041 823 Q 1038 822 1039 825 L 984 880 L 982 880 L 982 882 L 190 1674 L 333 1817 L 1270 881 L 1126 737 Z "></path><path fill="rgb(176,148,52)" stroke="rgb(176,148,52)" stroke-width="1" opacity="0.5411764705882353" d="M 1308.5 919 L 2058 1667.5 L 1916.5 1810 L 1912.5 1812 L 1164 1063.5 L 1308.5 919 Z M 1309 920 L 1245 985 L 1166 1063 L 1913 1811 L 2057 1668 L 1309 920 Z "></path><path fill="rgb(175,147,53)" stroke="rgb(175,147,53)" stroke-width="1" opacity="0.996078431372549" d="M 1124.5 2 L 1115.5 12 L 1124.5 2 Z "></path><path fill="rgb(175,147,53)" stroke="rgb(175,147,53)" stroke-width="1" opacity="0.996078431372549" d="M 1127.5 2 L 1129.5 5 L 1127.5 2 Z "></path><path fill="rgb(175,147,53)" stroke="rgb(175,147,53)" stroke-width="1" opacity="0.996078431372549" d="M 1131.5 6 L 1144.5 20 L 1131.5 6 Z "></path><path fill="rgb(175,147,53)" stroke="rgb(175,147,53)" stroke-width="1" opacity="0.996078431372549" d="M 1149.5 24 L 1179.5 55 L 1149.5 24 Z "></path><path fill="rgb(175,147,53)" stroke="rgb(175,147,53)" stroke-width="1" opacity="0.996078431372549" d="M 1097.5 29 L 1074.5 53 L 1097.5 29 Z "></path><path fill="rgb(175,147,53)" stroke="rgb(175,147,53)" stroke-width="1" opacity="0.996078431372549" d="M 1068.5 58 L 1013.5 114 L 1068.5 58 Z "></path><path fill="rgb(175,147,53)" stroke="rgb(175,147,53)" stroke-width="1" opacity="0.996078431372549" d="M 1185.5 60 L 1191.5 67 L 1185.5 60 Z "></path><path fill="rgb(175,147,53)" stroke="rgb(175,147,53)" stroke-width="1" opacity="0.996078431372549" d="M 1009.5 117 L 993.5 134 L 1009.5 117 Z "></path><path fill="rgb(175,147,53)" stroke="rgb(175,147,53)" stroke-width="1" opacity="0.996078431372549" d="M 991.5 135 L 983.5 144 L 991.5 135 Z "></path><path fill="rgb(175,147,53)" stroke="rgb(175,147,53)" stroke-width="1" opacity="0.996078431372549" d="M 1269.5 144 L 1215.5 199 L 1269.5 144 Z "></path><path fill="rgb(175,147,53)" stroke="rgb(175,147,53)" stroke-width="1" opacity="0.996078431372549" d="M 981.5 145 L 972.5 155 L 981.5 145 Z "></path><path fill="rgb(175,147,53)" stroke="rgb(175,147,53)" stroke-width="1" opacity="0.996078431372549" d="M 955.5 171 L 932.5 195 L 955.5 171 Z "></path><path fill="rgb(175,147,53)" stroke="rgb(175,147,53)" stroke-width="1" opacity="0.996078431372549" d="M 1308.5 184 L 1166.5 327 L 1308.5 184 Z "></path><path fill="rgb(175,147,53)" stroke="rgb(175,147,53)" stroke-width="1" opacity="0.996078431372549" d="M 921.5 205 L 912.5 215 L 921.5 205 Z "></path><path fill="rgb(175,147,53)" stroke="rgb(175,147,53)" stroke-width="1" opacity="0.996078431372549" d="M 1207.5 206 L 1190.5 224 L 1207.5 206 Z "></path><path fill="rgb(175,147,53)" stroke="rgb(175,147,53)" stroke-width="1" opacity="0.996078431372549" d="M 891.5 235 L 872.5 255 L 891.5 235 Z "></path><path fill="rgb(175,147,53)" stroke="rgb(175,147,53)" stroke-width="1" opacity="0.996078431372549" d="M 1172.5 241 L 1164.5 250 L 1172.5 241 Z "></path><path fill="rgb(175,147,53)" stroke="rgb(175,147,53)" stroke-width="1" opacity="0.996078431372549" d="M 1154.5 259 L 1134.5 280 L 1154.5 259 Z "></path><path fill="rgb(175,147,53)" stroke="rgb(175,147,53)" stroke-width="1" opacity="0.996078431372549" d="M 862.5 264 L 752.5 375 L 862.5 264 Z "></path><path fill="rgb(175,147,53)" stroke="rgb(175,147,53)" stroke-width="1" opacity="0.996078431372549" d="M 1119.5 294 L 1104.5 310 L 1119.5 294 Z "></path><path fill="rgb(175,147,53)" stroke="rgb(175,147,53)" stroke-width="1" opacity="0.996078431372549" d="M 1102.5 311 L 1088.5 326 L 1102.5 311 Z "></path><path fill="rgb(175,147,53)" stroke="rgb(175,147,53)" stroke-width="1" opacity="0.996078431372549" d="M 1166.5 328 L 1258.5 421 L 1166.5 328 Z "></path><path fill="rgb(175,147,53)" stroke="rgb(175,147,53)" stroke-width="1" opacity="0.996078431372549" d="M 1084.5 329 L 1037.5 377 L 1084.5 329 Z "></path><path fill="rgb(175,147,53)" stroke="rgb(175,147,53)" stroke-width="1" opacity="0.996078431372549" d="M 748.5 378 L 732.5 395 L 748.5 378 Z "></path><path fill="rgb(175,147,53)" stroke="rgb(175,147,53)" stroke-width="1" opacity="0.996078431372549" d="M 1031.5 382 L 1012.5 402 L 1031.5 382 Z "></path><path fill="rgb(175,147,53)" stroke="rgb(175,147,53)" stroke-width="1" opacity="0.996078431372549" d="M 1514.5 389 L 1533.5 409 L 1514.5 389 Z "></path><path fill="rgb(175,147,53)" stroke="rgb(175,147,53)" stroke-width="1" opacity="0.996078431372549" d="M 1157.5 397 L 1224.5 465 L 1157.5 397 Z "></path><path fill="rgb(175,147,53)" stroke="rgb(175,147,53)" stroke-width="1" opacity="0.996078431372549" d="M 714.5 412 L 692.5 435 L 714.5 412 Z "></path><path fill="rgb(175,147,53)" stroke="rgb(175,147,53)" stroke-width="1" opacity="0.996078431372549" d="M 996.5 417 L 983.5 431 L 996.5 417 Z "></path><path fill="rgb(175,147,53)" stroke="rgb(175,147,53)" stroke-width="1" opacity="0.996078431372549" d="M 1548.5 423 L 1580.5 456 L 1548.5 423 Z "></path><path fill="rgb(175,147,53)" stroke="rgb(175,147,53)" stroke-width="1" opacity="0.996078431372549" d="M 979.5 434 L 953.5 461 L 979.5 434 Z "></path><path fill="rgb(175,147,53)" stroke="rgb(175,147,53)" stroke-width="1" opacity="0.996078431372549" d="M 685.5 441 L 652.5 475 L 685.5 441 Z "></path><path fill="rgb(175,147,53)" stroke="rgb(175,147,53)" stroke-width="1" opacity="0.996078431372549" d="M 1582.5 457 L 1626.5 502 L 1582.5 457 Z "></path><path fill="rgb(175,147,53)" stroke="rgb(175,147,53)" stroke-width="1" opacity="0.996078431372549" d="M 1305.5 467 L 1427.5 590 L 1305.5 467 Z "></path><path fill="rgb(175,147,53)" stroke="rgb(175,147,53)" stroke-width="1" opacity="0.996078431372549" d="M 944.5 469 L 885.5 529 L 944.5 469 Z "></path><path fill="rgb(175,147,53)" stroke="rgb(175,147,53)" stroke-width="1" opacity="0.996078431372549" d="M 1255.5 495 L 1330.5 571 L 1255.5 495 Z "></path><path fill="rgb(175,147,53)" stroke="rgb(175,147,53)" stroke-width="1" opacity="0.996078431372549" d="M 627.5 499 L 589.5 538 L 627.5 499 Z "></path><path fill="rgb(175,147,53)" stroke="rgb(175,147,53)" stroke-width="1" opacity="0.996078431372549" d="M 1638.5 513 L 1673.5 549 L 1638.5 513 Z "></path><path fill="rgb(175,147,53)" stroke="rgb(175,147,53)" stroke-width="1" opacity="0.996078431372549" d="M 1005.5 532 L 1037.5 565 L 1005.5 532 Z "></path><path fill="rgb(175,147,53)" stroke="rgb(175,147,53)" stroke-width="1" opacity="0.996078431372549" d="M 874.5 539 L 860.5 554 L 874.5 539 Z "></path><path fill="rgb(175,147,53)" stroke="rgb(175,147,53)" stroke-width="1" opacity="0.996078431372549" d="M 1678.5 553 L 1696.5 572 L 1678.5 553 Z "></path><path fill="rgb(175,147,53)" stroke="rgb(175,147,53)" stroke-width="1" opacity="0.996078431372549" d="M 571.5 555 L 529.5 598 L 571.5 555 Z "></path><path fill="rgb(175,147,53)" stroke="rgb(175,147,53)" stroke-width="1" opacity="0.996078431372549" d="M 953.5 559 L 963.5 570 L 953.5 559 Z "></path><path fill="rgb(175,147,53)" stroke="rgb(175,147,53)" stroke-width="1" opacity="0.996078431372549" d="M 934.5 567 L 886.5 616 L 934.5 567 Z "></path><path fill="rgb(175,147,53)" stroke="rgb(175,147,53)" stroke-width="1" opacity="0.996078431372549" d="M 1040.5 567 L 1067.5 595 L 1040.5 567 Z "></path><path fill="rgb(175,147,53)" stroke="rgb(175,147,53)" stroke-width="1" opacity="0.996078431372549" d="M 969.5 575 L 981.5 588 L 969.5 575 Z "></path><path fill="rgb(175,147,53)" stroke="rgb(175,147,53)" stroke-width="1" opacity="0.996078431372549" d="M 1716.5 591 L 1742.5 618 L 1716.5 591 Z "></path><path fill="rgb(175,147,53)" stroke="rgb(175,147,53)" stroke-width="1" opacity="0.996078431372549" d="M 987.5 593 L 993.5 600 L 987.5 593 Z "></path><path fill="rgb(175,147,53)" stroke="rgb(175,147,53)" stroke-width="1" opacity="0.996078431372549" d="M 1361.5 601 L 1399.5 640 L 1361.5 601 Z "></path><path fill="rgb(175,147,53)" stroke="rgb(175,147,53)" stroke-width="1" opacity="0.996078431372549" d="M 1075.5 602 L 1168.5 696 L 1075.5 602 Z "></path><path fill="rgb(175,147,53)" stroke="rgb(175,147,53)" stroke-width="1" opacity="0.996078431372549" d="M 1000.5 606 L 1022.5 629 L 1000.5 606 Z "></path><path fill="rgb(175,147,53)" stroke="rgb(175,147,53)" stroke-width="1" opacity="0.996078431372549" d="M 511.5 615 L 489.5 638 L 511.5 615 Z "></path><path fill="rgb(175,147,53)" stroke="rgb(175,147,53)" stroke-width="1" opacity="0.996078431372549" d="M 1750.5 625 L 1812.5 688 L 1750.5 625 Z "></path><path fill="rgb(175,147,53)" stroke="rgb(175,147,53)" stroke-width="1" opacity="0.996078431372549" d="M 1030.5 636 L 1034.5 641 L 1030.5 636 Z "></path><path fill="rgb(175,147,53)" stroke="rgb(175,147,53)" stroke-width="1" opacity="0.996078431372549" d="M 864.5 637 L 846.5 656 L 864.5 637 Z "></path><path fill="rgb(175,147,53)" stroke="rgb(175,147,53)" stroke-width="1" opacity="0.996078431372549" d="M 1481.5 643 L 1596.5 759 L 1481.5 643 Z "></path><path fill="rgb(175,147,53)" stroke="rgb(175,147,53)" stroke-width="1" opacity="0.996078431372549" d="M 1038.5 644 L 1058.5 665 L 1038.5 644 Z "></path><path fill="rgb(175,147,53)" stroke="rgb(175,147,53)" stroke-width="1" opacity="0.996078431372549" d="M 468.5 658 L 389.5 738 L 468.5 658 Z "></path><path fill="rgb(175,147,53)" stroke="rgb(175,147,53)" stroke-width="1" opacity="0.996078431372549" d="M 1064.5 670 L 1076.5 683 L 1064.5 670 Z "></path><path fill="rgb(175,147,53)" stroke="rgb(175,147,53)" stroke-width="1" opacity="0.996078431372549" d="M 1435.5 675 L 1573.5 814 L 1435.5 675 Z "></path><path fill="rgb(175,147,53)" stroke="rgb(175,147,53)" stroke-width="1" opacity="0.996078431372549" d="M 1081.5 687 L 1092 697.5 L 1070.5 719 L 1091 697.5 L 1081.5 687 Z "></path><path fill="rgb(175,147,53)" stroke="rgb(175,147,53)" stroke-width="1" opacity="0.996078431372549" d="M 1817.5 692 L 1835.5 711 L 1817.5 692 Z "></path><path fill="rgb(175,147,53)" stroke="rgb(175,147,53)" stroke-width="1" opacity="0.996078431372549" d="M 805.5 696 L 765.5 737 L 805.5 696 Z "></path><path fill="rgb(175,147,53)" stroke="rgb(175,147,53)" stroke-width="1" opacity="0.996078431372549" d="M 1178.5 705 L 1218.5 746 L 1178.5 705 Z "></path><path fill="rgb(175,147,53)" stroke="rgb(175,147,53)" stroke-width="1" opacity="0.996078431372549" d="M 1838.5 713 L 1859.5 735 L 1838.5 713 Z "></path><path fill="rgb(175,147,53)" stroke="rgb(175,147,53)" stroke-width="1" opacity="0.996078431372549" d="M 1059.5 729 L 1032.5 757 L 1059.5 729 Z "></path><path fill="rgb(175,147,53)" stroke="rgb(175,147,53)" stroke-width="1" opacity="0.996078431372549" d="M 1125.5 737 L 1131 741.5 L 1126.5 738 L 1110.5 753 L 1125.5 737 Z "></path><path fill="rgb(175,147,53)" stroke="rgb(175,147,53)" stroke-width="1" opacity="0.996078431372549" d="M 1134.5 745 L 1141.5 753 L 1134.5 745 Z "></path><path fill="rgb(175,147,53)" stroke="rgb(175,147,53)" stroke-width="1" opacity="0.996078431372549" d="M 1878.5 753 L 1905.5 781 L 1878.5 753 Z "></path><path fill="rgb(175,147,53)" stroke="rgb(175,147,53)" stroke-width="1" opacity="0.996078431372549" d="M 747.5 754 L 530.5 972 L 747.5 754 Z "></path><path fill="rgb(175,147,53)" stroke="rgb(175,147,53)" stroke-width="1" opacity="0.996078431372549" d="M 1145.5 756 L 1156.5 768 L 1145.5 756 Z "></path><path fill="rgb(175,147,53)" stroke="rgb(175,147,53)" stroke-width="1" opacity="0.996078431372549" d="M 366.5 760 L 349.5 778 L 366.5 760 Z "></path><path fill="rgb(175,147,53)" stroke="rgb(175,147,53)" stroke-width="1" opacity="0.996078431372549" d="M 1598.5 760 L 1681.5 844 L 1598.5 760 Z "></path><path fill="rgb(175,147,53)" stroke="rgb(175,147,53)" stroke-width="1" opacity="0.996078431372549" d="M 1019.5 769 L 975.5 814 L 1019.5 769 Z "></path><path fill="rgb(175,147,53)" stroke="rgb(175,147,53)" stroke-width="1" opacity="0.996078431372549" d="M 1093.5 769 L 1086.5 777 L 1093.5 769 Z "></path><path fill="rgb(175,147,53)" stroke="rgb(175,147,53)" stroke-width="1" opacity="0.996078431372549" d="M 1159.5 770 L 1162.5 774 L 1159.5 770 Z "></path><path fill="rgb(175,147,53)" stroke="rgb(175,147,53)" stroke-width="1" opacity="0.996078431372549" d="M 1248.5 775 L 1275.5 803 L 1248.5 775 Z "></path><path fill="rgb(175,147,53)" stroke="rgb(175,147,53)" stroke-width="1" opacity="0.996078431372549" d="M 1167.5 778 L 1180.5 792 L 1167.5 778 Z "></path><path fill="rgb(175,147,53)" stroke="rgb(175,147,53)" stroke-width="1" opacity="0.996078431372549" d="M 337.5 789 L 269.5 858 L 337.5 789 Z "></path><path fill="rgb(175,147,53)" stroke="rgb(175,147,53)" stroke-width="1" opacity="0.996078431372549" d="M 1918.5 793 L 1928.5 804 L 1918.5 793 Z "></path><path fill="rgb(175,147,53)" stroke="rgb(175,147,53)" stroke-width="1" opacity="0.996078431372549" d="M 1185.5 796 L 1188.5 800 L 1185.5 796 Z "></path><path fill="rgb(175,147,53)" stroke="rgb(175,147,53)" stroke-width="1" opacity="0.996078431372549" d="M 1192.5 803 L 1199.5 811 L 1192.5 803 Z "></path><path fill="rgb(175,147,53)" stroke="rgb(175,147,53)" stroke-width="1" opacity="0.996078431372549" d="M 1282.5 809 L 1335.5 863 L 1282.5 809 Z "></path><path fill="rgb(175,147,53)" stroke="rgb(175,147,53)" stroke-width="1" opacity="0.996078431372549" d="M 1203.5 814 L 1209.5 821 L 1203.5 814 Z "></path><path fill="rgb(175,147,53)" stroke="rgb(175,147,53)" stroke-width="1" opacity="0.996078431372549" d="M 967.5 821 L 956.5 833 L 967.5 821 Z "></path><path fill="rgb(175,147,53)" stroke="rgb(175,147,53)" stroke-width="1" opacity="0.996078431372549" d="M 1214.5 825 L 1220.5 832 L 1214.5 825 Z "></path><path fill="rgb(175,147,53)" stroke="rgb(175,147,53)" stroke-width="1" opacity="0.996078431372549" d="M 1952.5 827 L 1975.5 851 L 1952.5 827 Z "></path><path fill="rgb(175,147,53)" stroke="rgb(175,147,53)" stroke-width="1" opacity="0.996078431372549" d="M 1222.5 833 L 1225.5 837 L 1222.5 833 Z "></path><path fill="rgb(175,147,53)" stroke="rgb(175,147,53)" stroke-width="1" opacity="0.996078431372549" d="M 1229.5 840 L 1231.5 843 L 1229.5 840 Z "></path><path fill="rgb(175,147,53)" stroke="rgb(175,147,53)" stroke-width="1" opacity="0.996078431372549" d="M 1233.5 844 L 1252.5 864 L 1233.5 844 Z "></path><path fill="rgb(175,147,53)" stroke="rgb(175,147,53)" stroke-width="1" opacity="0.996078431372549" d="M 940.5 848 L 889.5 900 L 940.5 848 Z "></path><path fill="rgb(175,147,53)" stroke="rgb(175,147,53)" stroke-width="1" opacity="0.996078431372549" d="M 1612.5 852 L 1642.5 883 L 1612.5 852 Z "></path><path fill="rgb(175,147,53)" stroke="rgb(175,147,53)" stroke-width="1" opacity="0.996078431372549" d="M 1986.5 861 L 2114.5 990 L 1986.5 861 Z "></path><path fill="rgb(175,147,53)" stroke="rgb(175,147,53)" stroke-width="1" opacity="0.996078431372549" d="M 1255.5 866 L 1257.5 869 L 1255.5 866 Z "></path><path fill="rgb(175,147,53)" stroke="rgb(175,147,53)" stroke-width="1" opacity="0.996078431372549" d="M 250.5 876 L 209.5 918 L 250.5 876 Z "></path><path fill="rgb(175,147,53)" stroke="rgb(175,147,53)" stroke-width="1" opacity="0.996078431372549" d="M 1265.5 876 L 1269.5 881 L 1265.5 876 Z "></path><path fill="rgb(175,147,53)" stroke="rgb(175,147,53)" stroke-width="1" opacity="0.996078431372549" d="M 1715.5 877 L 1766.5 929 L 1715.5 877 Z "></path><path fill="rgb(175,147,53)" stroke="rgb(175,147,53)" stroke-width="1" opacity="0.996078431372549" d="M 1351.5 878 L 1418.5 946 L 1351.5 878 Z "></path><path fill="rgb(175,147,53)" stroke="rgb(175,147,53)" stroke-width="1" opacity="0.996078431372549" d="M 1662.5 902 L 1780.5 1021 L 1662.5 902 Z "></path><path fill="rgb(175,147,53)" stroke="rgb(175,147,53)" stroke-width="1" opacity="0.996078431372549" d="M 874.5 914 L 860.5 929 L 874.5 914 Z "></path><path fill="rgb(175,147,53)" stroke="rgb(175,147,53)" stroke-width="1" opacity="0.996078431372549" d="M 1308.5 920 L 1310 920.5 L 1293.5 936 L 1308.5 920 Z "></path><path fill="rgb(175,147,53)" stroke="rgb(175,147,53)" stroke-width="1" opacity="0.996078431372549" d="M 192.5 934 L 149.5 978 L 192.5 934 Z "></path><path fill="rgb(175,147,53)" stroke="rgb(175,147,53)" stroke-width="1" opacity="0.996078431372549" d="M 1324.5 935 L 1380.5 992 L 1324.5 935 Z "></path><path fill="rgb(175,147,53)" stroke="rgb(175,147,53)" stroke-width="1" opacity="0.996078431372549" d="M 848.5 940 L 821.5 968 L 848.5 940 Z "></path><path fill="rgb(175,147,53)" stroke="rgb(175,147,53)" stroke-width="1" opacity="0.996078431372549" d="M 1286.5 942 L 1275.5 954 L 1286.5 942 Z "></path><path fill="rgb(175,147,53)" stroke="rgb(175,147,53)" stroke-width="1" opacity="0.996078431372549" d="M 1421.5 948 L 1469.5 997 L 1421.5 948 Z "></path><path fill="rgb(175,147,53)" stroke="rgb(175,147,53)" stroke-width="1" opacity="0.996078431372549" d="M 1269.5 959 L 1257.5 972 L 1269.5 959 Z "></path><path fill="rgb(175,147,53)" stroke="rgb(175,147,53)" stroke-width="1" opacity="0.996078431372549" d="M 1252.5 976 L 1251.5 978 L 1252.5 976 Z "></path><path fill="rgb(175,147,53)" stroke="rgb(175,147,53)" stroke-width="1" opacity="0.996078431372549" d="M 524.5 977 L 491.5 1011 L 524.5 977 Z "></path><path fill="rgb(175,147,53)" stroke="rgb(175,147,53)" stroke-width="1" opacity="0.996078431372549" d="M 809.5 979 L 784.5 1005 L 809.5 979 Z "></path><path fill="rgb(175,147,53)" stroke="rgb(175,147,53)" stroke-width="1" opacity="0.996078431372549" d="M 134.5 992 L 129.5 998 L 134.5 992 Z "></path><path fill="rgb(175,147,53)" stroke="rgb(175,147,53)" stroke-width="1" opacity="0.996078431372549" d="M 2118.5 993 L 2137.5 1013 L 2118.5 993 Z "></path><path fill="rgb(175,147,53)" stroke="rgb(175,147,53)" stroke-width="1" opacity="0.996078431372549" d="M 1832.5 994 L 2062.5 1225 L 1832.5 994 Z "></path><path fill="rgb(175,147,53)" stroke="rgb(175,147,53)" stroke-width="1" opacity="0.996078431372549" d="M 1405.5 1016 L 1427.5 1039 L 1405.5 1016 Z "></path><path fill="rgb(175,147,53)" stroke="rgb(175,147,53)" stroke-width="1" opacity="0.996078431372549" d="M 1490.5 1017 L 1519.5 1047 L 1490.5 1017 Z "></path><path fill="rgb(175,147,53)" stroke="rgb(175,147,53)" stroke-width="1" opacity="0.996078431372549" d="M 767.5 1021 L 746.5 1043 L 767.5 1021 Z "></path><path fill="rgb(175,147,53)" stroke="rgb(175,147,53)" stroke-width="1" opacity="0.996078431372549" d="M 2158.5 1033 L 2184.5 1060 L 2158.5 1033 Z "></path><path fill="rgb(175,147,53)" stroke="rgb(175,147,53)" stroke-width="1" opacity="0.996078431372549" d="M 456.5 1045 L 412.5 1090 L 456.5 1045 Z "></path><path fill="rgb(175,147,53)" stroke="rgb(175,147,53)" stroke-width="1" opacity="0.996078431372549" d="M 741.5 1047 L 727.5 1062 L 741.5 1047 Z "></path><path fill="rgb(175,147,53)" stroke="rgb(175,147,53)" stroke-width="1" opacity="0.996078431372549" d="M 1812.5 1052 L 1884.5 1125 L 1812.5 1052 Z "></path><path fill="rgb(175,147,53)" stroke="rgb(175,147,53)" stroke-width="1" opacity="0.996078431372549" d="M 1166.5 1064 L 1188.5 1087 L 1166.5 1064 Z "></path><path fill="rgb(175,147,53)" stroke="rgb(175,147,53)" stroke-width="1" opacity="0.996078431372549" d="M 2192.5 1067 L 2230.5 1106 L 2192.5 1067 Z "></path><path fill="rgb(175,147,53)" stroke="rgb(175,147,53)" stroke-width="1" opacity="0.996078431372549" d="M 715.5 1073 L 704.5 1085 L 715.5 1073 Z "></path><path fill="rgb(175,147,53)" stroke="rgb(175,147,53)" stroke-width="1" opacity="0.996078431372549" d="M 702.5 1086 L 629.5 1160 L 702.5 1086 Z "></path><path fill="rgb(175,147,53)" stroke="rgb(175,147,53)" stroke-width="1" opacity="0.996078431372549" d="M 1475.5 1086 L 1522.5 1134 L 1475.5 1086 Z "></path><path fill="rgb(175,147,53)" stroke="rgb(175,147,53)" stroke-width="1" opacity="0.996078431372549" d="M 400.5 1101 L 334.5 1168 L 400.5 1101 Z "></path><path fill="rgb(175,147,53)" stroke="rgb(175,147,53)" stroke-width="1" opacity="0.996078431372549" d="M 2243.5 1118 L 2244 1119.5 L 2228 1134.5 L 2243.5 1118 Z "></path><path fill="rgb(175,147,53)" stroke="rgb(175,147,53)" stroke-width="1" opacity="0.996078431372549" d="M 1228.5 1126 L 1281.5 1180 L 1228.5 1126 Z "></path><path fill="rgb(175,147,53)" stroke="rgb(175,147,53)" stroke-width="1" opacity="0.996078431372549" d="M 2222.5 1140 L 2210.5 1153 L 2222.5 1140 Z "></path><path fill="rgb(175,147,53)" stroke="rgb(175,147,53)" stroke-width="1" opacity="0.996078431372549" d="M 1912.5 1152 L 1988.5 1229 L 1912.5 1152 Z "></path><path fill="rgb(175,147,53)" stroke="rgb(175,147,53)" stroke-width="1" opacity="0.996078431372549" d="M 1542.5 1153 L 1800.5 1412 L 1542.5 1153 Z "></path><path fill="rgb(175,147,53)" stroke="rgb(175,147,53)" stroke-width="1" opacity="0.996078431372549" d="M 2204.5 1158 L 2192.5 1171 L 2204.5 1158 Z "></path><path fill="rgb(175,147,53)" stroke="rgb(175,147,53)" stroke-width="1" opacity="0.996078431372549" d="M 623.5 1165 L 610.5 1179 L 623.5 1165 Z "></path><path fill="rgb(175,147,53)" stroke="rgb(175,147,53)" stroke-width="1" opacity="0.996078431372549" d="M 2187.5 1175 L 2186.5 1177 L 2187.5 1175 Z "></path><path fill="rgb(175,147,53)" stroke="rgb(175,147,53)" stroke-width="1" opacity="0.996078431372549" d="M 596.5 1192 L 591.5 1198 L 596.5 1192 Z "></path><path fill="rgb(175,147,53)" stroke="rgb(175,147,53)" stroke-width="1" opacity="0.996078431372549" d="M 1295.5 1193 L 1420.5 1319 L 1295.5 1193 Z "></path><path fill="rgb(175,147,53)" stroke="rgb(175,147,53)" stroke-width="1" opacity="0.996078431372549" d="M 583.5 1205 L 568.5 1221 L 583.5 1205 Z "></path><path fill="rgb(175,147,53)" stroke="rgb(175,147,53)" stroke-width="1" opacity="0.996078431372549" d="M 286.5 1215 L 211.5 1291 L 286.5 1215 Z "></path><path fill="rgb(175,147,53)" stroke="rgb(175,147,53)" stroke-width="1" opacity="0.996078431372549" d="M 557.5 1231 L 546.5 1243 L 557.5 1231 Z "></path><path fill="rgb(175,147,53)" stroke="rgb(175,147,53)" stroke-width="1" opacity="0.996078431372549" d="M 544.5 1244 L 534.5 1255 L 544.5 1244 Z "></path><path fill="rgb(175,147,53)" stroke="rgb(175,147,53)" stroke-width="1" opacity="0.996078431372549" d="M 2013.5 1253 L 2023.5 1264 L 2013.5 1253 Z "></path><path fill="rgb(175,147,53)" stroke="rgb(175,147,53)" stroke-width="1" opacity="0.996078431372549" d="M 530.5 1258 L 496.5 1293 L 530.5 1258 Z "></path><path fill="rgb(175,147,53)" stroke="rgb(175,147,53)" stroke-width="1" opacity="0.996078431372549" d="M 2099.5 1261 L 2100.5 1263 L 2099.5 1261 Z "></path><path fill="rgb(175,147,53)" stroke="rgb(175,147,53)" stroke-width="1" opacity="0.996078431372549" d="M 491.5 1297 L 477.5 1312 L 491.5 1297 Z "></path><path fill="rgb(175,147,53)" stroke="rgb(175,147,53)" stroke-width="1" opacity="0.996078431372549" d="M 178.5 1323 L 94.5 1408 L 178.5 1323 Z "></path><path fill="rgb(175,147,53)" stroke="rgb(175,147,53)" stroke-width="1" opacity="0.996078431372549" d="M 465.5 1323 L 455.5 1334 L 465.5 1323 Z "></path><path fill="rgb(175,147,53)" stroke="rgb(175,147,53)" stroke-width="1" opacity="0.996078431372549" d="M 1429.5 1327 L 1467.5 1366 L 1429.5 1327 Z "></path><path fill="rgb(175,147,53)" stroke="rgb(175,147,53)" stroke-width="1" opacity="0.996078431372549" d="M 2091.5 1331 L 2092.5 1333 L 2091.5 1331 Z "></path><path fill="rgb(175,147,53)" stroke="rgb(175,147,53)" stroke-width="1" opacity="0.996078431372549" d="M 452.5 1336 L 432.5 1357 L 452.5 1336 Z "></path><path fill="rgb(175,147,53)" stroke="rgb(175,147,53)" stroke-width="1" opacity="0.996078431372549" d="M 425.5 1363 L 381.5 1408 L 425.5 1363 Z "></path><path fill="rgb(175,147,53)" stroke="rgb(175,147,53)" stroke-width="1" opacity="0.996078431372549" d="M 1471.5 1369 L 1513.5 1412 L 1471.5 1369 Z "></path><path fill="rgb(175,147,53)" stroke="rgb(175,147,53)" stroke-width="1" opacity="0.996078431372549" d="M 372.5 1416 L 362.5 1427 L 372.5 1416 Z "></path><path fill="rgb(175,147,53)" stroke="rgb(175,147,53)" stroke-width="1" opacity="0.996078431372549" d="M 1807.5 1418 L 1846.5 1458 L 1807.5 1418 Z "></path><path fill="rgb(175,147,53)" stroke="rgb(175,147,53)" stroke-width="1" opacity="0.996078431372549" d="M 59.5 1442 L 16.5 1486 L 59.5 1442 Z "></path><path fill="rgb(175,147,53)" stroke="rgb(175,147,53)" stroke-width="1" opacity="0.996078431372549" d="M 1551.5 1449 L 1606.5 1505 L 1551.5 1449 Z "></path><path fill="rgb(175,147,53)" stroke="rgb(175,147,53)" stroke-width="1" opacity="0.996078431372549" d="M 1887.5 1498 L 1939.5 1551 L 1887.5 1498 Z "></path><path fill="rgb(175,147,53)" stroke="rgb(175,147,53)" stroke-width="1" opacity="0.996078431372549" d="M 1631.5 1529 L 1652.5 1551 L 1631.5 1529 Z "></path><path fill="rgb(175,147,53)" stroke="rgb(175,147,53)" stroke-width="1" opacity="0.996078431372549" d="M 1954.5 1565 L 2032.5 1644 L 1954.5 1565 Z "></path><path fill="rgb(175,147,53)" stroke="rgb(175,147,53)" stroke-width="1" opacity="0.996078431372549" d="M 1698.5 1596 L 1745.5 1644 L 1698.5 1596 Z "></path><path fill="rgb(175,147,53)" stroke="rgb(175,147,53)" stroke-width="1" opacity="0.996078431372549" d="M 1765.5 1663 L 1912.5 1811 L 1765.5 1663 Z "></path><path fill="rgb(176,148,53)" stroke="rgb(176,148,53)" stroke-width="1" opacity="1" d="M 1125 1 Q 1127.7 -0.1 1127 2.5 L 1131 5 L 1131 6.5 L 1144.5 20 L 1149 23.5 L 1179.5 55 L 1185 59.5 L 1191.5 67 L 1269 143.5 L 1208.5 206 L 1190 223.5 L 1173.5 241 L 1164 249.5 L 1155.5 259 L 1134 279.5 L 1120.5 294 L 1104 309.5 Q 1104.8 311.8 1102.5 311 L 1085.5 329 L 1037 376.5 L 1032.5 382 L 1012 401.5 L 997.5 417 L 983 430.5 L 980.5 434 L 953 460.5 L 945.5 469 L 885 528.5 L 875.5 539 L 860 553.5 L 144.5 1270 L 1 1126.5 L 109 1018.5 L 128.5 998 L 135 992.5 L 148.5 978 L 193 934.5 L 208.5 918 L 251 876.5 L 268.5 858 L 338 789.5 L 348.5 778 L 367 760.5 L 388.5 738 L 469 658.5 L 488.5 638 L 512 615.5 L 528.5 598 L 572 555.5 L 588.5 538 L 628 499.5 L 651.5 475 L 686 441.5 L 691.5 435 L 715 412.5 L 731.5 395 L 749 378.5 L 751.5 375 L 863 264.5 L 871.5 255 L 892 235.5 L 911.5 215 L 922 205.5 L 931.5 195 L 956 171.5 L 971.5 155 L 982 145.5 Q 981.3 143.3 983.5 144 L 992 135.5 L 992 134 L 993.5 134 L 1010 117.5 L 1012.5 114 L 1069 58.5 L 1073.5 53 L 1098 29.5 L 1114.5 12 L 1125 2.5 L 1125 1 Z "></path><path fill="rgb(176,148,53)" stroke="rgb(176,148,53)" stroke-width="1" opacity="1" d="M 1309.5 184 L 1533.5 409 L 1548 422.5 L 1580.5 456 Q 1582.8 455.3 1582 457.5 L 1638 512.5 L 1673.5 549 L 1678 552.5 L 1696.5 572 L 1716 590.5 L 1742.5 618 L 1750 624.5 L 1812.5 688 L 1817 691.5 L 1835.5 711 L 1838 712.5 L 1859.5 735 L 1878 752.5 L 1905.5 781 L 1918 792.5 L 1928.5 804 L 1952 826.5 L 1975.5 851 L 1986 860.5 L 2114.5 990 L 2118 992.5 L 2137.5 1013 L 2158 1032.5 L 2184.5 1060 L 2192 1066.5 L 2230.5 1106 L 2243 1117.5 L 2243 1119.5 L 2223.5 1140 L 2210 1152.5 L 2205.5 1158 L 2192 1170.5 L 2188.5 1175 L 2186 1176.5 L 2180.5 1183 L 2102 1260.5 Q 2102.8 1262.8 2100.5 1262 L 2063 1225.5 L 1832.5 994 L 1767 929.5 L 1715.5 877 L 1682 844.5 L 1598.5 760 Q 1596.3 760.8 1597 758.5 L 1428 590.5 L 1305.5 467 L 1259 421.5 L 1166.5 328 L 1165 327.5 L 1309.5 184 Z "></path><path fill="rgb(176,148,53)" stroke="rgb(176,148,53)" stroke-width="1" opacity="1" d="M 1130.5 371 L 1157 396.5 L 1224.5 465 L 1255 494.5 L 1330.5 571 L 1361 600.5 L 1399.5 640 L 1435 674.5 L 1573.5 814 L 1612 851.5 L 1642.5 883 L 1662 901.5 L 1780.5 1021 L 1812 1051.5 L 1884.5 1125 L 1912 1151.5 L 1988.5 1229 L 2013 1252.5 L 2023.5 1264 L 2058 1297.5 L 2243 1483.5 L 2243 1485.5 L 2101.5 1627 L 2099.5 1627 L 1490.5 1017 L 1470 997.5 L 1421.5 948 L 1419 946.5 L 1351.5 878 L 1336 863.5 L 1282.5 809 L 1276 803.5 L 1248.5 775 L 1219 746.5 L 1178.5 705 L 1169 696.5 L 1075.5 602 L 1068 595.5 L 1040.5 567 L 1038 565.5 L 1005.5 532 L 987 514.5 L 1130.5 371 Z "></path><path fill="rgb(176,148,53)" stroke="rgb(176,148,53)" stroke-width="1" opacity="1" d="M 946.5 555 Q 952.3 554.3 953 558.5 L 963.5 570 L 969 574.5 L 981.5 588 L 987 592.5 L 993.5 600 L 1000 605.5 L 1022.5 629 L 1030 635.5 L 1034.5 641 L 1038 643.5 L 1058.5 665 L 1064 669.5 L 1076.5 683 L 1081 686.5 L 1091 697.5 L 1060.5 729 L 1032 756.5 L 1020.5 769 L 975 813.5 L 968.5 821 L 956 832.5 L 941.5 848 L 889 899.5 L 875.5 914 L 860 928.5 L 849.5 940 L 821 967.5 L 810.5 979 L 784 1004.5 L 768.5 1021 L 746 1042.5 L 742.5 1047 L 727 1061.5 L 716.5 1073 L 704 1084.5 Q 704.8 1086.8 702.5 1086 L 624.5 1165 L 610 1178.5 L 597.5 1192 L 591 1197.5 L 584.5 1205 L 568 1220.5 L 558.5 1231 L 546 1242.5 Q 546.8 1244.8 544.5 1244 L 531.5 1258 L 496 1292.5 L 492.5 1297 L 477 1311.5 L 466.5 1323 L 455 1333.5 L 453.5 1336 L 432 1356.5 L 426.5 1363 L 381 1407.5 L 373.5 1416 L 362 1426.5 L 144.5 1645 L 1 1500.5 L 60 1442.5 L 93.5 1408 L 179 1323.5 L 210.5 1291 L 287 1215.5 L 333.5 1168 L 401 1101.5 L 411.5 1090 L 457 1045.5 L 490.5 1011 L 525 977.5 L 529.5 972 L 748 754.5 L 764.5 737 L 806 696.5 L 845.5 656 L 865 637.5 L 885.5 616 L 935 567.5 L 946.5 555 Z "></path><path fill="rgb(176,148,53)" stroke="rgb(176,148,53)" stroke-width="1" opacity="1" d="M 1125.5 738 L 1134 744.5 L 1141.5 753 L 1145 755.5 L 1156.5 768 L 1159 769.5 L 1162.5 774 L 1167 777.5 L 1180.5 792 L 1185 795.5 L 1188.5 800 L 1192 802.5 L 1199.5 811 L 1203 813.5 L 1209.5 821 L 1214 824.5 L 1220.5 832 Q 1222.8 831.3 1222 833.5 L 1229 839.5 L 1231.5 843 Q 1233.8 842.3 1233 844.5 L 1255 865.5 L 1257.5 869 L 1262 872.5 Q 1261.3 874.8 1263.5 874 L 1269 881.5 L 332.5 1817 L 190 1673.5 L 1085.5 777 L 1094 769.5 L 1109.5 753 L 1125.5 738 Z "></path><path fill="rgb(176,148,53)" stroke="rgb(176,148,53)" stroke-width="1" opacity="1" d="M 1308.5 921 L 1310.5 921 L 1324 934.5 L 1380.5 992 L 1405 1015.5 L 1427.5 1039 L 1452 1062.5 Q 1451.3 1064.8 1453.5 1064 L 1522.5 1134 L 1542 1152.5 L 1800.5 1412 L 1807 1417.5 L 1846.5 1458 L 1887 1497.5 L 1939.5 1551 L 1954 1564.5 L 2032.5 1644 L 2056 1666.5 L 2056 1668.5 L 1913.5 1811 L 1746 1644.5 L 1698.5 1596 L 1653 1551.5 L 1631.5 1529 L 1607 1505.5 L 1551.5 1449 L 1514 1412.5 L 1471.5 1369 L 1468 1366.5 L 1429.5 1327 L 1421 1319.5 L 1295.5 1193 L 1282 1180.5 L 1228.5 1126 L 1189 1087.5 L 1166.5 1064 L 1165 1063.5 L 1245 984.5 L 1250.5 978 L 1253 976.5 L 1256.5 972 L 1270 959.5 L 1274.5 954 L 1287 942.5 L 1292.5 936 L 1308.5 921 Z "></path></svg></g></g><defs><clipPath id="SvgjsClipPath1148"><rect width="1000" height="1000" x="0" y="0" rx="250" ry="250"></rect></clipPath></defs></svg>