<svg xmlns="http://www.w3.org/2000/svg" width="1500" height="341"><path fill="#130f10" stroke="#130f10" d="m532.5 68 .5 200.5h-1zm2 0 107.5.5-107.5.5zm115 1 3.5.5-3.5.5zm5 1 2.5.5-2.5.5zm18 5 2.5 1.5-1.5-.5zm6 3 1 2zm3 2 1 2zm3 2 4 5zm5 6 1 2zm2 3 1 2zm-111 13 49.5.5-49.5.5zm-1 2 .5 41 48 .5-47.5.5-1.5-1.5zm60 1 2.5 1.5-1.5-.5zm4 2 1 2zm55 0 .5 2.5h-1zm315 6 15.5.5-15.5.5zm142 0 21.5.5-21.5.5zm-151 1 2.5.5-2.5.5zm31 0 3.5.5-3.5.5zm110 0 3.5.5-3.5.5zm41 0 3.5.5-3.5.5zm-233 2 .5 24.5h-1zm-237 1 .5 115.5h-1zm90 0 .5 99.5-1.5 3.5-.5-2.5 1-1zm43 0 .5 149.5h-1zm63 0 .5 12.5h-1zm32 0 2.5.5-2.5.5zm48 0 1.5.5-3.5 1.5v-1zm57 0 1 2zm84 0 1.5.5-3.5 1.5v-1zm119 0 .5 116.5h-1zm90 0 .5 72.5h-1zm43 0 .5 149.5h-1zm-736 2 .5 8.5h-1zm287 0 1.5.5-2.5 1.5zm119 1 2.5 1.5-1.5-.5zm155 0 2.5 1.5-1.5-.5zm-86 1-1 2zm92 2 1 2zm79 0 .5 12.5h-1zm-597 1 .5 2.5h-1zm280 0-1 2zm86 1 1 2zm54 0-6 7zm-144 2-9 10zm93 0 9 10zm154 0 1 2zm-304 1-1 2-1.5-.5zm-223 10-.5 1.5-.5 1.5-.5-1.5zm469 1 10.5.5-10.5.5zm-524 2-1 2zm440 0 1 2zm-387 1-2 3zm325 2 8.5.5-8.5.5zm64 0 2.5 4.5h-1zm-122 1-1 2zm146 1 .5 1.5-1.5 3.5-.5-2.5zm-98 1-1 2zm28 0 1 2zm-78 1 .5 1.5-2 1zm274 1 .5 96.5h-1zm-229 1-6 7zm82 0 1.5 2.5h-1zm-401 1-1 2zm357 0 4.5 3.5-.5 1.5-3-4zm107 0-.5 1.5-.5 1.5-.5-1.5zm42 0 1.5 1.5v15h-1v-15zm106 0 .5 5.5h-1zm-617 3-1 2zm265 1 3.5.5-3.5.5zm-269 1 1.5.5-3.5 1.5v-1zm265 0 2.5.5-2.5.5zm164 0 .5 3h40.5l.5-2.5h1l-1.5 3.5h-41zm-171 1 2.5.5-4.5 1.5v-1zm62 3-1 2zm-72 1-1 2zm126 0 1.5 2.5-2-1zm247 0 .5 4.5h-1zm-376 2-3 4zm-259 1 2.5.5-2.5.5zm4 1 2.5.5-2.5.5zm386 2 1.5 5.5h-1zm40 0 1.5 4.5h-1zm205 0 .5 2.5h-1zm-345 1 .5 2.5-1.5 3.5-.5-2.5zm233 1 2.5.5-2.5.5zm-193 1 .5 2.5h-1zm188 0 3.5.5-3.5.5zm-494 1 3.5 2.5-1.5-.5zm486 0 3.5.5-3.5.5zm125 0 .5 2.5h-1zm-129 1 2.5.5-2.5.5zm-7 1 2.5.5-2.5.5zm-470 1 1 2zm303 0 57.5.5-57.5.5zm163 0 2.5.5-2.5.5zm-63 1 1.5 7.5h-1zm57 0 2.5.5-2.5.5zm-237 1 .5 90.5h-1zm-218 2 2 3zm254 0 .5 4.5h-1zm347 0 .5 3.5h-1zm-714 3 55.5.5-55.5.5zm57 1 2.5.5-2.5.5zm657 1 .5 2.5h-1zm-649 1 1 2zm3 2 3 4zm468 1-1 2zm178 1 .5 3.5h-1zm-181 1-1 2zm-412 1 1.5 2.5-2-1zm-49 1 1 2zm441 0 .5 9.5h-1zm248 0 .5 17.5h-1zm-232 1-4 5zm80 3 .5 15.5-1.5 3.5-.5-2.5 1-1zm105 0 .5 3.5h-1zm-640 1 1.5 5.5h-1zm512 3 1.5.5-3.5 1.5v-1zm-175 1 100.5.5-100.5.5zm171 0-1 2-3 1 1-2zm-173 1 .5 2.5h-1zm161 3-1 2zm-5 3-6 7zm-198 1 .5 3.5h-1zm-292 2 .5 2.5h-1zm686 0 .5 5.5h-1zm-244 2 .5 1.5-1.5 3.5-.5-2.5zm-38 2-3 4zm6 1 1 2zm-412 2-1 2zm641 0 .5 2.5h-1zm46 0 .5 2.5-2 1zm-203 1 .5 8.5h-1zm-82 1-1 2zm-404 1-3 4zm644 1 .5 2.5h-1zm-243 2-3 4zm43 1 .5 4.5h-1zm243 0-1 2zm-693 1-1 2-1.5-.5zm438 0 4.5 2.5-1.5-.5q-3.8-.3-3-2Zm101 0-1 2zm-187 2 5 6zm339 0-1 2zm-247 1 3.5 2.5-2.5-1.5zm208 0 6.5 5.5-1.5.5zm-664 1 2.5.5-2.5.5zm414 0-1 2zm91 0 1 2zm43 0-4 5zm-601 1 47.5.5-47.5.5zm183 0 4.5 3.5-1.5-.5zm570 0-2 3-4 2 1-2zm-537 1-1 2-2 1 1-2zm248 0-2 3zm96 1 3 4zm-50 1 .5 1.5-2 1zm-374 1 .5 3.5h-1zm459 0-1 2zm130 0 2.5 1.5-1.5.5zm-298 1 1 2zm245 0 .5 3.5h-1zm71 0 2.5.5-2.5.5zm-546 1 6.5.5-6.5.5zm536 0 6.5.5-6.5.5zm-225 1-2 3zm81 0 1.5.5-3.5 1.5v-1zm-212 2 1 2zm61 0 10.5.5-10.5.5zm136 0 9.5.5-9.5.5zm-69 2-2 3zm13 2 1.5 3.5h-1zm-404 1-5 6zm388 1-8 9zm-120 1 1 2zm-244 1 1.5 2.5h-1zm513 0 .5 6.5h-1zm-131 1 1 2zm-135 1 7 8zm-278 2-1 2-2 1 1-2zm34 2 1.5 2.5h-1zm382 0 1 2zm89 0 .5 4.5h-1zm65 0 5.5 6.5-5-4zm-575 1-1 2-9 4v-1zm390 0-3 4-2 1 1-2zm-270 2-1 2zm3 0 .5 10.5h-1zm301 0 2 3zm232 0-1 2-3 2 2-3zm3 0 .5 10.5h-1zm-617 1 4 5zm250 0 1 2zm211 0-2 3zm-387 2-1 2zm434 0 1.5 3.5h-1zm-169 1-1 2zm47 0 1 2zm-315 1-1 2-2 1 1-2zm384 0-1 2zm152 0-1 2-2 1 1-2zm-272 1 1.5.5-2.5 1.5zm56 1 1 2zm-462 1 2.5.5-2.5.5zm-10 1 4.5.5-4.5.5zm91 0 2.5 1.5-1.5-.5zm53 0-1 2zm331 0 3.5 1.5-1.5.5zm152 0 2.5 1.5-1.5.5zm53 0-1 2-1.5-.5zm-689 1 7.5.5-7.5.5zm148 1 1.5.5-9.5 2.5v-1zm341 0 3.5 1.5-1.5.5zm-382 1 2.5.5-2.5.5zm256 0 3.5.5-3.5.5zm43 0 2.5.5-6.5 1.5v-1zm88 0 4.5 1.5-2.5.5zm32 0 3.5.5-6.5 1.5v-1zm117 0 2.5.5-2.5.5zm36 0 1.5.5-4.5 1.5v-1zm-568 1 2.5.5-2.5.5zm257 0 2.5.5-2.5.5zm279 0 2.5.5-2.5.5zm-529 1 15.5.5-15.5.5zm259 0 18.5.5-18.5.5zm127 0 14.5.5-14.5.5zm151 0 14.5.5-14.5.5z" opacity=".933"/><path stroke="#000" d="M0 0h1499.5l.5.5V341H.5l-.5-.5zm49 65v1h155zm158 0v1h44zm326 0v1h107zm116 1v1h3zM46 67l-1 40h1zm1 0v40l51 1-50 1h50l1 161V108h1v162h52l1-163v162h1V110l1-1h48l1 160V108h1v162h46v-91l2-10 4-9 6-6 1 1h2l-2-1 2-1h2l3-2q5-1 7 1h4q-2 4 2 3v-2l3 2 6 10 2 8v97h46V158l-4-18-5-9-8-8 1-2-2 1-2-1-1-3-2 1q-3-1-1-2l-2-1v2l-7-2 4-1v-1l-5 1-4-1h-18l-1 1-4-1-4 1 3 1-6 2-4-1-1 3-3-1v2l-3 2v-1l-2-1-1 4v-2q-3-1-2 3l-6 5V67zm484 0v203h111l1-1h8l11-2 18-7 2 1v-2l2 1-1-1q1-3 3-1 3 1 2-1h-1l1-2 2 1-1-1q14-11 18-30v-23q-3-13-11-21l1-2-2 1-1-1 1-2-2 1q-4-2-2-4l-2 1-1-3-2 1-3-1 2-1v-1l-3 1-3-1 2-1v-1l-3 1-4-1v-2l-2 1-8-1-2-1 8-3 3 1-1-1 5-3 2 1v-2l2 1 1-3 2 1-1-1q2-4 4-2-1-3 3-2l-1-1q8-9 11-22 2-30-11-43l-3-3 1-1-1-1h-2l-3-3h-1l-2-1-1-3-2 1-12-4 3-1v-1l-4 1-8-1 5-1v-1q-5-1-6 1-5 1-6-1zm-278 1-1 61 2-1-1-1zm407 0v1h2zm40 33-1 3h1zm1 5-1 3h1zm1 5-1 17h1zm-413 1v1h9zm128 0v1h11zm599 0v1h12zm143 0v1h15zm-878 1v1h2zm24 0v1h2zm101 0v1h3zm30 0v1h3zm570 0v1h2zm29 0v1h3zm112 0v1h3zm38 0v1h4zm-785 1v1l4 1q-9 0-13 4l-3-1v2l-2-1v2l-1-1-3 1 2 1-3 2v-1l-1-1q-3 1-1 3-1 2-2 0l-6 7q-3-1-2 2l-1-1q-3 1-1 3-8 8-13 20l-5 16-1 13-1 1v22l1 1 1 11q4 15 13 27l11 11-1 1h4l1 3 2-1 1 3 2-1-1 2 3 1v-2l7 4 19 5h26l1-1 5 1h4l-4-1 9-3 4 1-1-1 3-2 3 1-1-1 5-3-1 2h2l1-3 2 1 1-3 2 1 1-3 2 1q-2-2 2-4l2 1-1-1 8-8 1 1-1-2q8-7 11-17l-10-5v-2l-2 1-3-1 2-1v-1l-3 1-10-5-1-3-2 1-5-2-8 11-10 10-1-1-1 2-3 2v-2l-5 2 2 1-3 1h-15l-6-2 2-1v-1l-3 1v-2l-2 1-2-1q-11-8-14-23l1-8 1 7v-5h101l-101-1 102-1-1-19-3-16q-5-19-16-32l-7-7 1-2-2 1-4-3-1-3-2 1-1-3-2 1v-2l-2 1-1-1h-1l-3-1v-2l-2 1-10-2 5-1v-1q-5-1-6 1l-5-1h-23l-1 1zm600 0q-1 2 3 2l-10 2-3 2-3-1v2l-2 1-2-1v2l-3 2v-1l-2-1q1 4-2 5l-2-1v2q-12 9-18 23l-1-35q-3 2-10 1l-12 4-2-1-3 1 2 1-4 2v-2q-4-1-2 3l-2 1v-1l-1-1-2 4v-2l-2 1q-3-1-2 2l2-1-1 2h-2v-13h-46v152h46v-95l7-9 2 1-1-1h4l-2-1 5-3 14-3h10l-5 15-1 13-1 1v20l2 7v5l4 12 5 9-1 2 2-1 4 7 10 10v1l2-1q3 2 2 4l2-1 2 1q2 1 0 3l3 1v-2l2 2h-1v1l3-1-1 2 3 1v-2l14 5h-4v1q4 1 6-1l5 1h25l18-4 3-2 3 1-1-1 7-4 2 1-1-1 6-4q1-3 3-1l2-1-1-1q13-11 19-26l-6-3v-2l-2 1-1-3-3 1v-1l-2-2v2l-2-1v-2l-2 1-10-5 2-1v-1l-3 1v-2l-2 1v-2l-3 1-3 1 1 2-12 15-2-1q1 3-3 5l-2-1v2l-1-1-3 1h2v1l-3-1v2l-2 1h-15l15-1-16-1v2l-6-2 2-1v-1l-3 1v-2l-2 1-1-3-2 1-8-8-5-15 1-7 1 6v-4h101l-101-1 102-1-1-21-3-15-7-18-8-12-9-9 1-2-2 1-6-4-1-3-2 1v-2l-2 1v-2l-2 1-15-4 4-1v-1l-5 1-5-1h-23l-1 1zm141 0v1h4zm11 0-15 3-6 3-3-1v2l-2-1v2l-2-1v2l-4 3-2-1v2q-9 6-13 18l-3 14q-1 4 1 4h43l2-9 3-5 5-4v2l3-1-2-1 4-2h16l3 2-2 1 3 1 3-1q4 3 5 9v15l-1-16-1 14-3 1 3 1-9 2-19 2-10 3h-4l4-1v-1q-5-1-7 2l2 1-15 5v-2l-4 1-1 3-2-1v2l-3 2-1-2-2 4-2-1v2l-3 2q-9 7-13 18l-3 16 2 17 6 12 10 8q2 1 0 3l3 1v-2l5 3v2l2-1 14 4h19l1-1 4 1h4l-4-1 15-5h4l-2-1 3-2-1 2h2l2-4-1 2h2v-2l7-7 2 13 2 1h41l-3-10v-10l-1-1v-99q-3-16-13-24h-1l-1-3-2 1-4-3q-3 1-2-1h-1l-12-4-13-1-1-1zm39 0v1h5zm-194 1v1h2zm201 0v1h2zm-927 1v1h2zm123 0v1h2zm323 0v1h44zm89 0v1h44zm63 0v1h44zm77 0v1h5zm102 0v1h2zm153 0v1h3zm52 0v1h44zm89 0v1h44zm-627 2v116l3 16 5 9 7 7-1 1 3 1v-2l8 5 11 3h22l1-1 4 1h4l-4-1 8-3v2q2 1 1-1l8-5 2 1 1-3 2 1q-2-2 3-5l-1 2 2 7v-10h1v11h46V118h-46v102l-3 8q-5 7-15 9-9 1-13-1h-2l-3-1 2-1v-1l-3 1q-6-4-7-11V118zm48 0-1 105h1zm194 0-1 30 2-1-1-2zm294 0v118l3 14 4 7-1 2 2-1 7 8-1 1h2l2 1q-1 3 2 2v-2l6 3v2l2-1 8 2h22l1-1 4 1h4l-4-1 8-3 3 1-1-1 7-4 2 1 1-3 2 1-1-1 6-5v11h46V118h-46v101l-3 9-5 5-1-1-1 2-8 3q-9 1-13-1h-2l-3-1 2-1-2-1-1 1-4-3 1-2h-1l-3-6V118zm89 0-1 101h1zm-626 1-1 112h1zm90 0-1 101h1zm49 0-1 150h1zm14 0-1 150h1zm383 0-1 115h1zm49 0-1 104h1zm90 0-1 150h1zm-688 10-1 3h1zm-331 1v2l2-1zm330 3-1 3h1zm-360 9-1 3h1zm764 2-1 3h1zm57 0v1h16zm73 1-1 4h1zm-893 1-1 3h1zm762 2-1 3h1zm-761 3-1 6h1zm760 0-1 5h1zm-831 1v1h5zm964 0-1 97h1zm-145 4-1 3h1zm59 0-1 4h1zm-806 3-1 110h1zm9 0-1 3h1zm586 2v1h3zm-445 1-1 3h1zm437 1v1h2zm-580 2-1 3h1zm320 0v1h2zm279 1-1 3h1zm-656 1-1 4h1zm56 2-1 3h1zm146 0-1 4h1zm685 0v1h3zm-232 1-1 3h1zm223 0v1h6zm-3 1v1h2zm-914 1-1 5h1zm40 0-1 98h1zm801 0-1 4h1zm65 0v1h3zm-664 1-1 4h1zm-148 1-1 4h1zm568 0-1 6h1zm31 0-1 6h1zm204 0v1h2zm-12 3v1h2zm-886 1-1 91h1zm843 0-1 4h1zm-749 1-1 6h1zm150 0-1 5h1zm449 2-1 6h1zm151 2-1 10h1zm-599 2-1 8h1zm-152 4-1 17h1zm599 4-1 11h1zm153 2-1 8h1zm-390 3-1 3h1zm1 4-1 21h1zm237 6-1 5h1zm-599 2-1 5h1zm750 0-1 3h1zm-102 2-1 3h1zm-599 1-1 4h1zm551 1-1 5h1zm-599 2-1 3h1zm648 0-1 3h1zm99 1-1 5h1zm-292 3-1 3h1zm536 0-1 3h1zm70 2v1h43zm-645 1-1 3h1zm-414 1-1 3h1zm950 0-1 3h1zm107 0v46h46v-46zm-699 1-1 3h1zm698 0-1 44h1zm49 0-1 45h1zm-362 3 1 2q1-3-1-2Zm-386 1-1 3h1zm8 6-1 5h1zm63 0v1h8zm317 0-2 3 2 1zm219 0v1h8zm-63 1-1 5h1zm-833 2v1h15zm678 2-1 3h1zm-380 3-1 3h1zm536 0-1 3h1zm-535 3-1 3h1zm519 5-1 8h1zm-866 5q-2 3 1 2zm599 0q-2 3 1 2zm222 2-2 2h2zm1 2-1 4h1zm148 0-2 2q3 1 1 8h1zm-103 1-1 3h1zm1 4-1 3h1zm-572 1v1h3zm-3 1v1h2zm-10 2v1h3zm-8 1v1h3zm-544 1v1h51zm106 0v1h44zm89 0v1h44zm98 0v1h2zm57 0v1h2zm82 0v1h109zm273 0v1h44zm63 0v1h44zm124 0v1h2zm57 0v1h2zm119 0v1h2zm27 0v1h40zm146 0v1h44zm66 0v1h44zm-1008 2v1h4zm343 0v1h3zm299 0v1h4zm86 0v1h3zm151 0v1h3zm-873 1v1h2zm32 0v1h3zm309 0v1h3zm28 0v1h2zm230 0v1h3zm32 0v1h3zm96 0v1h2zm25 0v1h2zm125 0v1h3zm28 0v1h2zm-895 1v1h14zm340 0v1h12zm259 0v1h14zm126 0v1h11zm151 0v1h12z" opacity="0"/><path stroke="#000" d="m581.5 106 .5 39.5h-1zm2 0h49l6.5 2.5-2 1 2.5.5h2l2.5 1.5q5.5 6 4 19-1.4 8.1-7.5 11.5l-2-1-1 3v-2l-2.5.5.5 1.5-2-1v2l-3 1h-47v-1l47.5-.5-48-.5v-36h48.5v-1h-48zm58.5 5 1 2q1-3-1-2Zm4 5-1 3h1zm1 4-1 11h1zm-1 12-1 3h1zm-491.5-25 48.5.5-48.5.5zm261 41h13l4.5 2.5q-.8 2.6 2.5 1.5h2l3.5 2.5q-1.1 3.3 1.5 2.5v-2q7.4 6.6 8.5 19.5h-1l-.5-1.5-.5 2h-54.5l-.5-1.5h-1l-.5 1.5-.5-1.5 5-13 7.5-7.5 1.5.5 1.5-2.5v2l4.5-1.5q-2.2-1.2.5-2.5zm.5 1v1h13zm33 18-1 3h1zm-54 3-1 3h1zm619.5-22 13.5.5-14 1 14.5.5 2-1 3.5 1.5-2 1 2.5.5 1.5-.5-.5 1.5 2-1 1 3 2-1q8.5 6.5 9.5 20.5h-1l-.5-3.5-.5 4h-55.5q-1 0-.5-4.5 3-11.5 11.5-17.5v2q2.6.8 1.5-2.5l1.5.5 1.5-.5q-2.2-1.2.5-2.5zm-5.5 3v1h2zm-13 13-1 3h1zm52 3-1 3h1zm-54 3-1 4h1zm-411.5 15h55l9.5 3.5-.5 1.5 2-1q4.9 3.6 6.5 10.5v16q-2.2 6.8-7.5 10.5l-2 1-3-1v1l1.5.5-8.5 2.5-1-1h-51v1l50.5.5-52 .5v-44h55.5v-1h-55zm57.5 2v1h2zm13 9-1 3h1zm1 3-1 5h1zm0 13-1 3h1zm-18 16v1h2zm551.5-31 1.5.5v16l-4 13-7.5 8.5-1.5-.5-1.5 2.5-2 1v-2l-3.5 1.5.5 1.5-2 1h-15l-3.5-1.5 2-1-5.5-2.5v2q-7.8-4.2-5.5-18.5l4.5-6.5 2 1 1-3 3 1v-1l-1.5-.5 2.5-1.5 1.5.5q-.8-2.6 2.5-1.5l1.5-.5-.5 1.5 3-2 13-4 2 1v-2zm.5 1-1 16h1zm-10 3v1h2zm-7 2v1h2zm-7 2v1h3zm23 10-1 4h1zm-45 3-1 4h1zm0 9-1 3h1zm11 11v1h14z" opacity="0"/><path fill="#201c1d" stroke="#201c1d" d="m662.5 72 2.5.5-2.5.5zm34 31 1.5 2.5-2-1zm-51 8 1 2zm53 1 .5 13.5h-1zm486 3 1 2zm6 1 5.5 1.5-4.5.5zm-191 1 4.5.5-4.5.5zm40 0 3.5.5-3.5.5zm102 0 3.5.5-3.5.5zm-424 2h41l1.5 1.5v101l1 1-2-1V120h-41.5zm90 0 41.5.5-41.5.5zm63 0 41.5.5-42 .5v147.5l.5.5h41v1h-41l-1.5-1.5v-147zm77 0 4.5.5-4.5.5zm306 0 41.5.5-41.5.5zm90 0 41.5.5-41.5.5zm-403 1-1 2-1.5-.5zm111 0 1 2zm-121 3-1 2zm54 0-1 2zm74 0 1 2zm64 1 .5 2-2-.5zm96 3 1 2zm-242 1-1 2zm-328 4 .5 2.5h-1zm49 0-.5 1.5-.5 1.5-.5-1.5zm218 0-1 2zm308 0 1 2zm-113 4 .5 2-2-.5zm-466 4-1 2zm516 1 2.5.5-2.5.5zm14 0 2.5.5-2.5.5zm-220 4 .5 4.5h-1zm126 0-1 2zm72 0-3 4zm-138 1 2.5.5-3.5 1.5zm171 0 1 2zm-557 1 3.5.5-3.5.5zm61 0-5 6zm318.5 1 2 .5-2 1zm140.5 2-.5 1.5-.5 1.5-.5-1.5zm-194 1-1 2zm150 2 .5 4.5h-1zm-151 3 1 2zm-6 1 3.5.5-3.5.5zm-11 1-1 2zm17 3-.5 1.5-.5 1.5-.5-1.5zm-291 1 2.5.5-2.5.5zm388 4 .5 2.5h-1zm39 0 1.5 2.5h-1zm-422 1 2.5 1.5-1.5.5zm248 2-1 2zm76 0-.5 1.5-.5 1.5-.5-1.5zm199 1-1 2-3.5-.5zm-509 2-1 2zm493 1 3.5.5-3.5.5zm-83 1 .5 2.5h-1zm71 0 2 1 1.5-.5-2.5 1.5zm-250 1 .5 2.5h-1zm78 0 1 2zm61 0-1 2zm-102 1 .5 3.5h-1zm-258 2 2.5 1.5 4 5zm443 3 1.5.5-2.5 1.5zm-493 3 2.5 1.5-1.5.5zm452 1 .5 6.5h-1zm-394 2-1 2zm248 0 .5 20.5h-1zm240 8 3.5 1.5-1.5-.5q-3 .5-2-1Zm-11.5 3 2 .5-2 1zm-6.5 2 2.5.5-2.5.5zm-464 3 .5 19.5h-1zm-49 1q2.8 1.3 1.5 6.5l-2 1q2.2-1.2 1-6zm497 1 1.5.5-2.5 1.5zm-163 1 1.5 5.5-2-1zm153 5-1 2zm-194 3 .5 3.5h-1zm240 2 .5 2.5h-1zm-534 1-1 2zm442 2 .5 6.5h-1zm-444 4-1 2zm-5 3-1 2zm434 0q2.3-.7 1.5 1.5zm214 0 1 2zm-493 1-1 2zm247 2-1 2zm134 0-1 2zm-422 1 1 2zm38 1-1 2zm297 0 .5 6.5h-1zm-468 1 4.5.5-4.5.5zm462 0 1.5 2.5h-1zm-49 4-1 2zm-269 1 2.5.5-2.5.5zm536 0 2.5.5-2.5.5zm-592 3 1 2zm299 1 2.5.5-2.5.5zm14 0 2.5.5-2.5.5zm122 0 2.5.5-2.5.5zm13 0 2.5.5-2.5.5zm-468 2-.5 1.5-.5 1.5-.5-1.5zm263 0 1 2zm2 3 1 2zm-271 2-1 2zm-3 4-1 2zm504 1 1 2-1-1-2.5 1.5q-.7-2.2 1.5-1.5zm-388 3 2.5 1.5-1.5-.5-5 4zm428 0 1.5 4.5-2-1zm108 0 2.5 1.5-1.5-.5-3 2zm-152 1-1 2zm-209 3 1.5 2.5-2-1zm-249 4 2.5 1.5-1.5.5zm536 0 2.5 1.5-1.5-.5zm-476 1-1 2zm-140 1 3.5.5-4.5 1.5zm-117 2 101.5.5-101.5.5zm274 0 41.5.5-41.5.5zm388 0 38.5.5-38.5.5zm148 0 41.5.5-41.5.5zm-569 3-1 2zm360 0 1 2zm23 0-1 2zm153 0-1 2z" opacity=".984"/><path fill="#302c2d" stroke="#302c2d" d="m532.5 67 107.5.5-107.5.5zm113 1 3.5.5-3.5.5zm8 1 2.5.5-2.5.5zm23 7 1 2zm3 2 1 2zm3 2 1 2zm7 7 1 2zm2 3 1 2zm-49 19 3 4zm373 5 11.5.5-11.5.5zm143 0 15.5.5-15.5.5zm-459 1 .5 8.5h-1zm308 0 3.5.5-3.5.5zm25 0 2.5.5-2.5.5zm118 0 2.5.5-2.5.5zm30 0 3.5.5-3.5.5zm-179 1 2.5.5-2.5.5zm38 0 2.5.5-2.5.5zm103 0 2.5.5-2.5.5zm49 0 2.5.5-2.5.5zm-475 2h43l1.5 1.5-.5 102.5-.5-103h-43.5zm90 0 43.5.5-44 .5-.5 100-.5-99.5zm61.5 0 45 .5-44 .5v149.5l.5.5h43v1h-44l-.5-.5zm80.5 0 4.5.5-4.5.5zm304 0h43l1.5 1.5-.5 103.5-.5-104h-43.5zm90 0 43.5.5-44 .5-.5 100-.5-99.5zm-358 4-1 2zm78 3 1 2zm58 0-1 2zm98 1 2 3zm-242 1-1 2zm89 0 1 2zm-146 1-1 2zm52 3-5 6zm252 0 2 3zm-112 3-1 2zm115 1 1 2zm-582 4-2 3zm319 1-1 2zm197 2 2.5.5-2.5.5zm14 0 2.5.5-2.5.5zm-21 3-3 4zm30 0 1 2zm-555 1 3.5.5-3.5.5zm62 1-6 7zm324 0 2.5.5-2.5.5zm12 0 2.5.5-2.5.5zm205 0 .5 2.5h-1zm-45 1 1 2zm-37 2-1 2zm-195 2q3 1.5 0 3zm49 0-1 2zm100 1 .5 4.5h-1zm-150 4 .5 2.5h-1zm-11 1 3.5.5-3.5.5zm55 0-1 2zm-335 5 2.5.5-2.5.5zm-4 1 1.5.5-2.5 1.5zm262 1-1 2zm129 1 .5 2.5h-1zm-133 3-1 2zm271 1 2.5.5-2.5.5zm-13 2 3.5.5-3.5.5zm-261 2 .5 2.5h-1zm179 0 .5 2.5h-1zm-99 1 55.5.5-55.5.5zm162 0 3.5.5-3.5.5zm-207 1 .5 3.5h-1zm-367 8 56.5.5-56.5.5zm118 2 1 2zm395 0 .5 6.5h-1zm22 3-1 2zm-3 2-2 3zm74 5 2.5.5-2.5.5zm-18 5 2.5.5-2.5.5zm-463 3 .5 16.5h-1zm285 2 .5 4.5h-1zm-43 8 .5 2.5h-1zm113 0-2 3zm6 3 1 2zm29 2 .5 6.5h-1zm-444 2-5 6zm402 2-1 2zm-58 2 1 2zm-194 2-1 2zm-40 1 1.5 2.5-2-1zm236 0 1 2zm339 0-1 2zm-288 1-3 4zm134 0-6 7zm-383 1-2 3zm-171 1 4.5.5-4.5.5zm467 0 .5 5.5h-1zm45 2 4 5zm-425 2 .5 2.5h-1zm326 0-1 2zm210 1 .5 2.5h-1zm-236 4 2.5.5-2.5.5zm14 0 2.5.5-2.5.5zm135 0 2.5.5-2.5.5zm67 2 .5 6.5h-1zm-273 1 1 2zm127 1-2 3zm-125 2 1 2zm-266 1-4 5zm270 4 3 4zm136 0 1 2zm-417 5-1 2zm390 0-2 3zm116 0-3 4zm43 0 .5 3.5h-1zm-429 1 1.5.5v11l.5.5h43v1h-43l-1.5-1.5v-10zm536 0 1.5.5v11l.5.5h43v1h-43l-1.5-1.5v-10zm-234 1 2 3zm154 1 5 6zm-535 1 4 5zm468 0 .5 2.5h-1zm-126 1-1 2zm-88 1 1 2zm355 0-1 2zm-537 1-1 2zm384 0-1 2zm-66 2 1 2zm-458 1 2.5.5-2.5.5zm-7 1 2.5.5-2.5.5zm-118 2 102.5.5-102.5.5zm663 0 40.5.5-40.5.5zm-452 2 2.5.5-2.5.5zm298 0 2.5.5-2.5.5zm120 0 2.5.5-2.5.5zm118 0 2.5.5-2.5.5zm-246 1 3.5.5-3.5.5zm-277 1 12.5.5-12.5.5zm258 0 14.5.5-14.5.5zm127 0 10.5.5-10.5.5zm150 0 11.5.5-11.5.5z" opacity=".8"/><path fill="#afab9f" stroke="#afab9f" d="m48.5 65 155.5.5-155.5.5zm158 0 44.5.5-44.5.5zm326 0 107.5.5-107.5.5zm116 1 3.5.5-3.5.5zm-603 1 .5 39.5h-1zm1.5 0 204 .5-45 .5-.5 202-1-163-1 162-.5-160h-48.5l-.5.5v159h-1l-.5-161.5-1 163-.5-162.5q1.8-3.2 3.5.5h48l1.5-1.5v-38l-.5-.5H48l-.5 39zm484.5 0 .5 202.5h-1zm111 0 4.5.5-4.5.5zm11 0h5l9.5 3.5-3.5 1.5v-1l1.5-.5-2.5-.5-3 1v-1l1.5-.5-2.5-.5-3 1v-1l2.5-.5-4.5-.5-5 1v-1zm-401 1 1 59q1.8-3.1 3.5-1.5-1.1-3.3 1.5-2.5l1.5.5q-1.1-3.3 1.5-2.5h2l1.5-.5-.5-1.5 2-1v3l-4 2-1.5-.5-1.5 2.5-1.5-.5-6.5 7.5 1.5-2.5-1-1zm417 3 2.5 1.5-2 1 .5-1.5-3 1v-1zm5 2 6.5 4.5.5 1.5 1-1 3 3 3.5 2.5-.5 2.5-6-7q-1.2 2.3-2.5-.5l-.5-1.5-1.5.5.5-1.5-2-1-2 1-2.5-1.5zm16 12 3.5 4.5q-1.5 3-3 0 2.5-1.5-1-3zm4 6-1 2zm1 2 2.5 4.5-1.5 2.5-.5-1.5 1-2h-2l1-2h-2zm3 6 1.5 4.5h-1l-.5-2.5-1 2-.5-1.5zm-117 6 49.5.5-48 1 49 1-49 .5v36h47.5l3 1v-2l6.5-2-1.5 3-1.5-.5q.8 2.6-2.5 1.5l-3 1-1-1h-47v1l44.5.5-48 .5v-40.5zm.5 1-1 40h1zm116.5-1 .5 2.5h-1z" opacity=".149"/><path fill="#afab9f" stroke="#afab9f" d="m99.5 106 1.5 1.5v162h-1L99.5 107l-1 163-.5-161-50-.5 49.5-.5zm601 0 .5 2.5h-1zm-63 1v2l2-1 1 2 1.5-.5-.5 1.5q2.3-.7 1.5 1.5l3 1-1 2h2l-1.5 3.5q-1.1-6.4-6-9l-4.5-1.5zm62 3 .5 4.5h-1zm2 1 .5 16.5h-1zm-413 1 9.5.5-9.5.5zm128 0 11.5.5-11.5.5zm599 0 12.5.5-12.5.5zm143 0 15.5.5-15.5.5zm-878 1 2.5.5-3 1 3 1-3.5.5-3.5-1.5zm24 0q10.1.4 15.5 5.5l-.5 2.5-4.5-2-.5-2-2 1-3.5-1.5 3-1-3.5-.5-3 1v-1l1.5-.5q-3.3.1-2.5-1.5Zm101 0 3.5.5-4 1 3 1-3.5.5-5-1v1l3.5.5-6.5 1.5-3-1v1l1.5.5-1.5.5q-3-1.5 0-3l5 1v-1l-1.5-.5zm30 0 9 1 1.5 1.5-.5 1.5 4-1 2.5 1.5-.5 1.5 3-1 2 3 2-1 2.5 1.5-.5 2.5-6.5-3.5.5-1.5-3 1-2.5-1.5.5-1.5-4 1-4.5-1.5 4-1-4.5-.5-4 1v-1l2.5-.5q-4.4.4-3.5-1.5Zm570 0 2.5.5-2.5.5zm29 0 8.5 1.5-7.5 1.5v-1l2.5-.5q-4.4.4-3.5-1.5Zm112 0 3.5.5-3.5.5zm38 0 4.5.5-4.5.5zm-900 1 18.5.5-18.5.5zm126 0 23.5.5-23.5.5zm589 0 7.5 1.5-3.5.5-4-1v1l1.5.5-1.5.5-3.5-1.5zm10 0 5.5.5-5.5.5zm20 0 3.5.5-3.5.5zm111 0 8.5 1.5-3.5.5-5-1zm11 0 6.5.5-6.5.5zm26 0 5.5.5-5.5.5zm13 0 5.5.5-9.5 1.5v-1zm-917 1 4.5 1.5-4.5 1.5-3-1v1l1.5.5-3.5 1.5v-3zm771 0 1.5.5-3.5 1.5v-1zm153 0 8.5 2.5-3.5 1.5v-1l1.5-.5-3.5-.5-2 1v-1l1.5-.5-2.5-.5-3 1v-1zm-481 1 44.5.5-44.5.5zm89 0 44.5.5-44.5.5zm63 0 44.5.5-44.5.5zm77 0 5.5.5-5.5.5zm102 0 4.5 1.5-3.5 1.5v-1l1.5-.5-2.5-.5-2 1v-1zm87 0 4.5 1.5-2.5.5zm118 0 44.5.5-44.5.5zm89 0 44.5.5-44.5.5zm-399 1 5.5 1.5-3.5.5zm10 0 2.5.5v25h-1v-24l-1.5-.5zm39 0 2.5 1.5-1.5.5zm141 0 2.5 1.5-1.5.5zm-743 1v3l-8 4-1.5-.5-1.5 2.5-1.5-.5-3.5 4.5-1-1-2.5 1.5q-.7-2.2 1.5-1.5 2.2-4.3 4.5-2.5l3.5-4.5 2 1 2.5-1.5-2-1zm258 0 .5 1.5-1 1v10l1 2h-1q-2.7-3.8-1-12zm68 0 .5 113.5h-1zm47 0 .5 104.5 1 3h-1l-.5-2.5-1 2-.5-1.5 1-1zm88 0 .5 151.5h-1zm63 0 .5 12.5 1 1-2 1zm43 0 1 27q1.3-2.2 2.5.5h-2l1 2q-1.5 3-3 0zm32 0 2.5 1.5-1.5-.5-1.5.5.5 1.5-2.5-1.5zm65 0 7.5 4.5q-1.2 2.7-2.5.5l-2.5-1.5-.5-1.5-2 1zm76 0v3l-2-1-1 2-1.5-.5-1.5 2.5q-3-1.5 0-3zm78 0 2.5 1.5q-.7 2.3 1.5 1.5h2l6.5 4.5.5 1.5 1-1 4.5 4.5-1.5 1.5-5.5-5.5-.5-1.5q-1.2 2.3-2.5-.5l-.5-1.5-1.5.5.5-1.5-2 1-4.5-2.5.5-1.5-3 1v-1zm44 0 .5 117.5-1.5 5.5-.5-4.5 1-1zm88 0 .5 100.5 1 3h-1l-1-3zm47 0 .5 151.5h-1zm-673 1 .5 111.5h-1zm90 0 .5 100.5 1 2h-1l-.5-1.5-.5 2.5 1 2h-1l-1-4 1-1zm49 0 .5 149.5h-1zm14 0 .5 149.5h-1zm69 0 2.5 1.5-1.5.5zm5 0 2.5.5-2.5.5zm309 0 .5 114.5h-1zm49 0 .5 103.5-1.5 3.5-.5-2.5 1-1zm90 0 .5 149.5h-1zm-1066 1 10.5 9.5-1 2 3 1-1 2h2q-1.5 3-3 0-3-7.5-9.5-11.5l-2.5-1.5zm609 0 3.5 1.5-1.5.5-2-1v2l-3-1v2l-2-1v2l-1.5-.5-.5 1.5-.5-3zm53 0 1 2-1.5-.5-1.5 2.5q-3-1.5 0-3zm-336 2 .5 7.5h-1zM462 123l3 1.5q-1.5 3-3 0zm516 0 3 1.5h-2l-1.5 2.5q-1.2-2.2-2.5.5l-2.5 3.5-1-1-4.5 3.5 9.5-8.5 1.5.5zm84.5 0 1 2-2.5-.5zm58 0 1 2q-1.3-2.3-2.5.5l-7.5 8.5-1.5-1.5 7.5-7.5zm-421 1 1.5 7.5h-1zm223 0v3l-1.5-.5-.5 1.5q-1.2-2.2-2.5.5l-1.5 2.5-1.5-3zm-456 1 8.5 7.5q-2.2 1.3.5 2.5 1.2-2.2 2.5.5l-1.5 1.5-7.5-7.5-.5-1.5q-1.7 2.8-3.5-1.5zm599 0 11.5 10.5-.5 2.5-11-12-1.5.5zm-367 5 1.5 5.5-1.5 2.5-1.5-3.5h1l.5 1.5.5-2.5zm-330 2 1 2zm277 0 1.5 3.5h-3zm581 0 3.5 4.5-2 1v-2l-.5-1.5-1.5.5zm-859 2 .5 2-2 .5 1 1-3.5 3.5-1.5-1.5zm742 0v3q-3-1.5 0-3Zm-144 1 .5 2.5-2.5 2.5-1.5-1.5zm-629 1 1.5 2.5-1.5 2.5-.5-1.5 1-2h-2zm142 1 3 4h-2l-2.5-2.5zm165 0 1.5 1.5-3.5 3.5-.5-2.5zm464 0 1 2-1.5-.5 1 2h-3zm-411 1 1.5 2.5q-1.5 3-3 0h2zm382 0q4.5 2 1 4l-1.5-1.5zm152 0-.5 1.5-.5 1.5-.5-1.5zm-892 2 1.5 4.5-1.5 3.5-.5-2.5 1-3h-1l-.5 1.5-.5-1.5z" opacity=".149"/><path fill="#afab9f" stroke="#afab9f" d="m961.5 140 .5 2.5-1.5 1.5q-3.5-2 1-4Zm-600 1q3 1.5 0 3-3-1.5 0-3Zm119 1 3.5 1.5 1 2-1 2h2q-1.5 3-3 0l-1-2 1-2q-2.1 1.6-2.5-1.5Zm214 0q2.8 1.3.5 2.5l-2.5 3.5q-3-1.5 0-3l1.5.5 1-2zm387 0q3 1.5 0 3-3-1.5 0-3Zm82 0 10.5.5-10.5.5zm-59 1 1 2-1.5-.5 1 4h-1l-1-4zm54 0 2 1h16l2-1v1l-2 1h-16zm74 0 1.5 5.5-1 1-.5 92.5-.5-92.5 1-4h-1l-.5 1.5-.5-1.5zm-873 1q3 1.5 0 3-3-1.5 0-3Zm797 0 2.5 1.5-6 2.5-2.5 5-.5-1.5.5-2.5 1.5.5 1.5-2.5 1.5-.5-.5-1.5 1.5.5zm24 0 1 2 1.5-.5 1.5 2.5 1.5-.5-.5 2.5q-2.2-3.7-7.5-4.5zm-97 1 2.5 3.5-1.5 2.5-1.5-2.5 1-2h-2zm-743 1 .5 2.5-1.5 5.5-.5-4.5zm17 1 1 2-1.5-.5 1 2h-2l1 2h-2l1 2h-2l1 3h-1l-1-3zm60 0 9.5.5-9.5.5zm600 0 8.5.5-8.5.5zm-605 1q5.9 2.6 16 1l3-1 2.5 1 .5 2 1.5-.5.5 1.5 1.5-.5q-1.2 2.8-2.5.5-3.3 1.1-2.5-1.5h-2l.5-1.5q-5.9 2.6-16 1l-3-1-1 3-4 1-1.5-.5-6.5 7.5-2.5-.5 9.5-8.5 1.5.5.5-1.5 1.5.5q-.7-2.2 1.5-1.5zm278 0q3.5 2-1 4-3.3-1.1-2.5 1.5-3.7 5.4-10 6.5l1.5-3 2-1 1.5.5 1.5-2.5q1.2 2.3 2.5-.5zm322 0 2 1h13l3-1 2.5 1.5-3.5 1.5-1-1h-14zm90 0 1.5 4.5h-1l-.5-1.5-1 5-.5-4.5zm-616 1 2.5 4.5-1 2h2l-1.5 2.5-1.5-3.5 1-2h-2l1-2h-2zm523 0 3.5 1.5-7 2.5 1.5-3 3 1v-1zm-738 1 4.5.5-4.5.5zm763 0 2.5 1.5q.8 2.3-1.5 1.5l-3.5-1.5zm153 0-.5 1.5-.5 1.5-.5-1.5zM267 151l9 1.5-5.5.5-2-1-1.5.5zm10.5 0 3.5.5-3.5.5zm64 0 .5 5.5-1 1-.5 112.5-.5-112.5zm-77 1 1.5.5-2 1 2 1q-5.9.6-7.5 5.5l-1.5-.5 1 2h-2l1 2h-2l1 3h-1l-.5-1.5-.5 2.5 1 2h-1l-.5-1.5-.5 3.5 1 5h-1l-1-8q2.4-9.6 9.5-14.5l1.5.5zm18 0 1 2q1.2-2.2 2.5.5l-2.5.5q-3.1.7-1-3Zm157 0 3.5 4.5-2 .5-.5-3q-1.2 2.3-2.5-.5zm565 0 .5 3-6 4.5-1.5 2.5-1-2 1.5.5 1-2-1-1 3.5-3.5q1.2 2.3 2.5-.5zm34 0 2 3q1.3-2.2 2.5.5v2l.5 1.5q1.3-2.2 2.5.5l-1 2h2l-1 2h2l-1.5 2.5-7-11-1.5-.5zm49 0 3.5 8.5-2 1 1-2h-2l1-3h-2l1-2h-2zm101 0 .5 1.5-1 1v15l-1.5 1.5-2.5-.5 3-1-3-1 3-.5v-13.5zm46 0 .5 96.5-1.5 7.5-.5-6.5 1-1zm-947 3q4.2 1.8 1.5 3.5l.5 1.5q1.3-2.2 2.5.5l1 3-1.5 2.5-1.5-3.5 1-2-3-1-1.5-2.5-1.5-.5zm860 0q2.3.8 1.5 4.5h-1zm42 0 .5 14.5h-1zm-837 2 1.5 3.5h-1l-.5-1.5-.5 2.5 1 2h-1l-.5-1.5-1 2-.5-1.5zm92 0 2 3-3.5-1.5zm46 0 .5 1.5-1.5 2.5-.5-1.5zm462 0 .5 2.5-.5 1.5-.5-2-6-.5zm150 1 .5 4 43 .5-44 .5zm44 0 1.5 3.5-2-1zm-804 1 .5 109.5h-1zm332 0 1.5.5-2 1 2 1-1.5.5-2-1v2l-3 1-2.5-1.5 1.5-.5 2 1v-2zm265 0 2.5.5-2.5.5zm-448 1 1.5 4.5-1 3h1l.5-1.5.5 1.5-1.5 3.5-1.5-5.5 1-3h-1l-.5 1.5-.5-1.5zm442 0 7.5 1.5-3.5.5-4-1z" opacity=".149"/><path fill="#afab9f" stroke="#afab9f" d="m950.5 160 1.5 3.5h-1zm-554 1 2.5.5q-2.1 3.3-2.5-.5Zm49 0 2.5.5-1.5 2.5zm485 0 3.5 1.5-4.5 1.5v-1l2.5-.5zm65 1q2.8 1.3.5 2.5l-1.5 4.5-1.5-3.5h1l.5 1.5.5-2.5q-2.2-1.2.5-2.5Zm96 0 .5 1.5-1.5 2.5-.5-1.5zm-696 1 1.5 2.5-1.5 2.5-1.5-2.5h2zm53 0 1.5 3.5-1.5 3.5-1.5-4.5zm217 0 2.5 1.5-1.5.5zm259 0 2.5 1.5-9 6q-2.7 3.3-2.5 9.5l-1.5-6.5h2l-1-2h2l1-2q-2.2-1.2.5-2.5 1.3 2.3 2.5-.5l1.5-2.5zm25 0 1.5 3.5h-1zm-289 1 2.5 1.5-4.5.5v-1zm-367 1 .5 1.5-1.5 4.5-.5-3.5zm56 0 1.5 5.5h-1zm320 0 4.5 1.5-3.5 1.5v-1l1.5-.5q-3.3.1-2.5-1.5Zm379 0 .5 1.5-1.5 3.5-.5-2.5zm44 0 .5 1.5-1.5 3.5-.5-2.5zm-428 1 3.5.5-3.5.5zm284 0 1.5 5.5h-1z" opacity=".149"/><path fill="#afab9f" stroke="#afab9f" d="m393.5 167 1.5 5.5-1 2.5h54.5l.5-1.5 1.5-5.5.5 4.5-1 2h2l-1.5 1.5h-58l.5-1.5-1-3h1l.5 1.5.5-2.5zm283 0q11.3 3.2 18.5 10.5l-2 1-.5-1.5q-1.7 2.8-3.5-1.5l-.5-1.5q-1.2 2.3-2.5-.5l-.5-1.5-1.5.5.5-1.5-2 1-1-2-1.5.5.5-1.5-3 1v-2l-3 1v-1zm-382 1 .5 3.5-1 1-.5 97.5-.5-97.5zm698 0 1.5 5.5h-1zm-644 1 1.5 7.5h-1zm146 0 1.5 7.5-1.5 5.5-.5-4.5 1-4h-1l-.5 2.5-.5-2.5zm555 0 .5 1.5-1 4h1l.5-1.5.5 1.5q-1.5 3-3 0zm130 0 3.5.5-3.5.5zm-232 1 1.5 5.5h-1zm223 0 6.5.5-7 1 4 1-3.5.5-3.5-1.5zm8 1 3.5.5-3.5.5zm-187 1 1.5 3.5-2-1zm103 0 .5 3.5h-1zm65 0 3.5.5-3.5.5zm-908 1 1.5 5.5v90h-1v-90q-2.4-1.3-.5-5.5Zm905 0 5.5 1.5-3.5.5zm8 0 3.5.5-3.5.5zm-869 1 .5 95.5h-1zm52 0 1.5 8.5h-1zm599 0 1.5 10.5h-1zm204 0 4.5 1.5-1.5.5-3-1zm-6 1 7.5 1.5-2.5.5-4-1v1l1.5.5-2.5.5-2.5-1.5zm-231 2 .5 92.5h-1zm180 0 .5 3.5h-1zm45 0 4.5 1.5-1.5.5-3-1v2l-2.5-1.5zm-43 1 .5 3.5-1.5 4.5-.5-3.5zm-749 1 .5 5.5h-1zm150 0 .5 4.5-1.5 6.5-.5-5.5zm198.5 0 2 .5-2 1zm2.5 2 5.5 6.5-2 1v-2l-.5-1.5q-1.2 2.3-2.5-.5l1-1zm248 0q3.4 10.6 1.5 26.5l-1.5 5.5-.5-4.5 1-1v-20q-2.6-1.6-.5-6.5Zm182 0 2.5 1.5h-2l-.5 1.5-1.5-.5q.8 2.3-1.5 1.5l-3 2q-3-1.5 0-3l2-1 1.5.5q-.7-2.2 1.5-1.5z" opacity=".149"/><path fill="#afab9f" stroke="#afab9f" d="m1096.5 183 .5 9.5-1 1V204l-102 .5 101 1-101 .5-.5 4-1-6-1 2-.5-3h103.5l.5-.5v-9l1-1zm-599 2 .5 7.5h-1zm84 0 1 1h55l3-1v1l-3 1H582v44h46.5v1H581zm-234 1 .5 22.5h-1z" opacity=".149"/><path fill="#afab9f" stroke="#afab9f" d="m642.5 186 1.5.5-4.5 1.5v-1zm475 0 .5 2.5h-1zm-472 1 2.5 1.5.5 1.5q1.7-2.7 3.5 1.5-2.3 3.7-4.5-1.5l-1.5-.5.5-1.5-2 1zm470 1-.5 1.5-.5 1.5q-1.5-2.5-3 1l-1.5-.5zm-770 1 .5 16.5h-1zm358 0 1.5 2.5-2 1 1-2h-2zm-51 4-1 2zm53 0-.5 1.5-.5 1.5-.5-1.5zm239 0 .5 10.5h-1zm164 0 2.5.5-6 5v-2zm-455 2-.5 1.5.5 2.5 1-2 .5 1.5-1.5 5.5-1.5-7.5zm444 0 .5 7.5h-1zm-601 1 .5 8-102 .5 101 1-101 .5-.5 5-1-7-1 6-.5-7h103.5l.5-.5zm689 1 2.5 1.5v15l1 3h-1l-1-3V198zm4 0 .5 14.5h-1zm-482 1 .5 2.5-1.5 3.5-.5-2.5zm396 0 .5 1.5-1.5 3.5q-3.2-1.7.5-3.5z" opacity=".149"/><path fill="#afab9f" stroke="#afab9f" d="m1182.5 198 3.5 1.5-1.5.5zm-8 2 5.5 1.5-2.5.5-3-1v2l-4 1-2.5-1.5 1.5-.5 3 1v-2zm-519 1 .5 13.5h-1zm53 1 .5 20.5h-1zm392 1 1 2-1.5-.5 1 2h-3zm64 0 4.5 1.5-5.5 1.5-3-1v1l1.5.5-1.5.5-2.5-1q1.1 2.7-1.5 2l-2 1v-1l1.5-.5-2-1 1.5-.5q1.5 2.5 3-1l4-1 4 1v-1q-3 .5-2-1Zm-12 4 .5 1.5-9 6-1.5 2.5-1-2 1.5.5 3.5-5.5 1.5.5.5-1.5 2 1v-2l1.5.5zm-55 1 1.5 3.5h-1l-.5-1.5-.5 2.5 1 2h-1l-1-4zm-751 2 .5 4.5h-1zm601 0 .5 3.5-1.5 5.5-.5-4.5zm45 1 .5 2.5h-1zm-644 1 .5 3.5-1.5 3.5-.5-2.5zm45 0 .5 3.5h-1zm260 0 .5 2.5h-1zm341 0 .5 2.5h-1zm66 0 13.5 6.5-2.5 1.5v-2l-2 1-1-3-2 1-1-2-1.5.5-.5-1.5-1.5.5q.8-2.2-1.5-1.5zm-665 1 1.5 5.5h-1l-.5-1.5-1 2-.5-1.5zm69 0v2l2-1 7.5 4.5-2 1 .5-1.5-2 1v-2l-2 1-7-3q-1.2 2.3-2.5-.5l2.5-.5zm594 1 2.5.5-3 2q2.3 1.3-.5 2.5-3.2-1.7.5-3.5zm128 1 1.5 5.5h-1z" opacity=".149"/><path fill="#afab9f" stroke="#afab9f" d="M458.5 216q3.5 2-1 4-3.5-2 1-4Zm537 0 .5 2.5-1.5 2.5-.5-1.5zm-646 1 1.5 6.5-1 3h1l.5-1.5.5 1.5-1.5 2.5-1.5-4.5 1-3h-1l-.5 1.5-.5-1.5zm599 0 .5 2.5-1.5 2.5-.5-1.5zm146 0 .5 4.5h-1zm46 0q2.3.8 1.5 4.5h-1zm-665 2 2.5 1.5-.5 1.5 2-1 6.5 3.5-.5 1.5 2 1 2-1v1l-2 1-11.5-6.5.5-1.5-2 1zm176 0 1 2zm404 0 .5 2.5-1.5 1.5-1.5-.5-1 2 1 1-3.5 3.5-.5-2.5 3-3zm20 0 3.5 2.5-2 1-.5-1.5-1.5.5zm-620 1q3.5 2-1 4l-1.5-.5 1 2-12.5 11.5-1-2 1.5.5zm684 0 .5 8.5h-1zm46 0 1.5 2.5-2-1zm153 0 1.5 3.5-2-1zm-941 1-.5 1.5.5 1.5 1.5-.5-1 2 3 1 6 7-1.5 1.5-6.5-6.5 1-2-3-1-1-3zm253 0-3 4-1.5.5.5 1.5-1.5-.5-.5 1.5-2.5-1.5zm56 0 1.5 6.5h-1zm291 1q2.6 6.9 8 11l1.5.5-.5 2.5-2-3-1 1-3.5-3.5v-2l-.5-1.5-1.5.5v-2l-.5-1.5-1.5.5zm83 0 8.5 4.5-2 1-.5-1.5-1.5.5-.5-1.5-1.5.5-.5-1.5-1.5.5-.5-1.5-1.5.5zm328 0 43.5.5-43.5.5zm-224 1 1.5 2.5h-3zm-383 1 1.5 2.5h-2l-1 2 1 1-3.5 3.5-2.5-.5zm498 0 .5 2.5-1 2h2l3.5 4.5 2.5.5-2.5 1.5-1-2-1 1-3.5-3.5-1-3zm107.5 0h46v45.5h-1V225h-44l-.5 45zm-456.5 1 .5 1.5-2 1zm455 0 .5 43.5h-1zm49 0 .5 44.5h-1zm-749 1 1.5 5.5-1.5 2.5-1.5-3.5h1l.5 1.5.5-2.5zm390 0 .5 4.5-1.5 2.5-.5-1.5zm46 1 .5 2.5-2 1zm41 0 2.5.5-3 1-6.5 8.5-1-2 1.5.5zm-830 1 .5 1.5-1 2h2l-1.5 2.5-1.5-3.5zm137 0 2 1 2-1q3 1.5 0 3v-2l-2 1zm146 0 4.5 1.5-1.5.5-3-1v1l1.5.5-2.5.5-1-1-50.5-.5 51.5-.5zm129 0 4 5 2.5.5-2.5 1.5-1-2q-1.7 2.8-3.5-1.5l1-2h-2zm283 0 .5 1.5-4.5 5.5q-1.2-2.2-2.5.5l-.5 1.5-1.5-.5-.5 1.5-2-1v2l-3 1-1-1h-14l-3 1-1.5-.5 2.5-1.5h16l2 1v-2q8.3-1.7 12.5-7.5zm45 0q2.3-.7 1.5 1.5-1.5 3-3 0zm243 0 .5 2.5-2.5 2.5-1.5-.5-1.5 2.5-2.5-1.5 1.5-.5 1.5.5zm-840 3 1 2 1.5-.5-3 1 1 2q-1.5 3-3 0zm457 0-.5 1.5.5 1.5 1.5-.5-1 2h2l-1 2h2q-1.5 3-3 0l-2-5zm190 0 3 4 5.5 2.5-2.5 1.5-1-2-1.5.5-3.5-5.5-1.5.5zm-788 2 3.5 6.5-1 2 3 1-1 2 3 1q-2 3.5-4-1l-3-5 1-2h-2l1-2h-2zm349 0 1.5 3.5-3.5 5.5-1-2 1.5.5-1-2h2l-1-2h2zm12 0 .5 1.5-1.5 5.5-.5-4.5zm77 0 2.5 1.5-1.5-.5zm301 1q2.3.8 1.5 4.5l-2.5.5-1.5-1.5zm-686 1h2l6.5 2.5-3.5 1.5q-4.6-1.2-5-4Zm365 0 3.5 1.5-2.5.5zm5 0 8.5.5-8.5.5zm230.5 0 7 2.5-2.5 1.5v-2l-3 1zm300.5 0 3.5 1.5-2.5.5zm5 0 8.5.5-8.5.5zm-876 1 2.5 1.5h-2q.8 2.3-1.5 1.5l-3 1-1-1h-15l-2 1v-1l2-1h15l3 1v-1l-1.5-.5zm350 0 2.5.5-2.5.5zm384 0 2.5 1.5h-2q.8 2.3-1.5 1.5l-1-2z" opacity=".149"/><path fill="#afab9f" stroke="#afab9f" d="M492.5 237q2.8 1.2.5 2.5l-2.5 3.5-1.5-.5 1 2q-2 4.5-4 1l4.5-5.5 1.5.5-1-2zm286 0 6.5.5-6.5.5zm318 0 .5 2.5-1.5 3.5-.5-2.5zm218 0 6.5.5-6.5.5zm-598 1 .5 4.5-1 3h1l.5-1.5.5 1.5-1.5 3.5-1.5-5.5zm436 0 14.5.5-14.5.5-2 1v-1zm-196 1v2l2.5 1.5q-1.5 3-3 0l-1-2zm134 0q3 1.5 0 3-3-1.5 0-3Zm162 0 .5 3.5-1.5 3.5-.5-2.5zm-833 1 12.5.5-12.5.5zm600 0 10.5.5-10.5.5zm135 0 10.5.5-10.5.5zm-57 1 .5 2.5-1.5 2.5-.5-1.5zm-398 1q3 1.5 0 3-3-1.5 0-3Zm389 0 1.5 1.5-3.5 3.5z" opacity=".149"/><path fill="#afab9f" stroke="#afab9f" d="m959.5 244 1.5 1.5-.5 2.5q-4.5-2-1-4Zm294 0 .5 2.5-1.5 2.5-.5-1.5zm-556 1 .5 2.5-8.5 8.5q-2.6-.7-1.5 2h-2.5l-6 4-1-2 1.5.5 1.5-2.5 2 1 3-4 1.5.5 2.5-3.5 1 1 5.5-5.5q-2.2-1.3.5-2.5Zm-335 2 15.5 14.5.5 1.5h2l2.5 1.5.5 1.5 1.5-.5-.5 1.5 3-1 4.5 2.5-3.5 1.5-1-3-3 1-9.5-6.5.5-1.5h-3l-3.5-2-8-9.5zm722 0 1.5 1.5-7.5 7.5q-1.2-2.2-2.5.5l.5 1.5-4 3-1-2q1.3 2.3 2.5-.5zm-600 1q2.3-.7 1.5 1.5l-4.5 4.5q-1.2-2.2-2.5.5l.5 1.5q-1.3-2.2-2.5.5l.5 1.5-14 9-2-1v2l-2-1v2l-3 1-2-1v2l-4 1-2.5-1.5 1.5-.5 3 1v-1l-1.5-.5 4.5-1.5 2 1v-2l10-5 1.5.5 1.5-2.5 1.5.5 2.5-3.5 1.5.5zm234 0 1.5 3.5-1 2h2q-1.5 3-3 0l1-3h-2zm244 0q4.2 1.7 1.5 3.5l4.5 4.5 1-1 3.5 3.5 1.5 2.5q1.3-2.2 2.5.5l.5 1.5 1.5-.5-.5 1.5 2 1 1.5-.5.5 1.5 1.5-.5-.5 1.5 2-1 1 2 1.5-.5 1 2-1.5.5-19.5-12-6-7.5zm137 0-1 2zm155 0 .5 1.5-1 2h2l-1 2h2q-1.5 3-3 0l-1-3zm-154 2-1 2zm135 1 .5 7.5h-1zm-134 1q3 1.5 0 3-3-1.5 0-3Z" opacity=".149"/><path fill="#afab9f" stroke="#afab9f" d="M721.5 255q3 1.5 0 3-3-1.5 0-3Zm382 0 5 7q1.7-2.7 3.5 1.5l-1.5 1.5-7.5-7.5zm88 0q3.4-.9 1.5 4.5l-1.5 4.5-.5-4-4.5 3-1.5-.5q1.1 3.3-1.5 2.5l-9 5-2.5-1.5 1.5-.5 2 1v-2l1.5.5.5-1.5 2 1v-2l1.5.5 1.5-2.5 1.5.5 2.5-3.5 1 1 3.5-2.5.5 1.5.5-3.5zm66 0v2l2.5 1.5-.5 2.5-3.5-4.5zm-534 3q2.8 1.3.5 2.5l5.5 5.5 1.5-.5.5 1.5q1.3-2.2 2.5.5l-2.5.5-9.5-8.5zm80 1 .5 9.5h-1l-.5-6.5-8 6-1-2 1.5.5.5-1.5q1.3 2.3 2.5-.5l2.5-3.5q1.3 2.3 2.5-.5zm266 1q3 1.5 0 3-3-1.5 0-3Zm165 0 .5 2.5h-1zm103 0 2.5.5-.5 9.5-1-8-8 6-1-2 1.5.5 1.5-2.5 1.5.5zm-662 1 2.5 1.5-1.5-.5zm561 0 .5 2.5-1.5 2.5-.5-1.5zm-563 1 2.5 1.5-3.5 1.5-2.5-1.5 1.5-.5 2 1zm588 0 4 4q1.3-2.2 2.5.5l-.5 1.5zm-196 1 2.5.5-7.5 4.5-1-2 2 1v-2l2 1v-2l1.5.5zm-398 1 3.5 1.5-8.5 2.5-2.5-1.5 1.5-.5 3 1v-1l-1.5-.5 1.5-.5 4 1v-1zm446 0 2.5 3.5-1.5.5q-4.5-2-1-4Zm124 1 1.5 4.5h-1l-.5-1.5-1 2-.5-1.5zm-584 2 5.5 1.5-1.5.5-4-1zm138 0q3 1.5 0 3l-2.5-1.5 1.5.5 1.5-.5zm266 0 1 2-3 1-2-1v2l-2.5-1.5 3.5-1.5 2.5 1zm212 0 1 2 1.5-.5-3 1.5zm58 0q3 1.5 0 3l-2.5-1.5 1.5.5 1.5-.5zm-682 1 5.5.5-5.5.5zm474 0-1 2zm-726 1 1.5.5-2 1 2.5.5 2-1v1l-4 1-2.5-1.5zm242 0 6.5.5-6.5.5zm17 0 3.5.5-3.5.5zm85 0v2l3-1v1l-3 1q-3-1.5 0-3Zm50 0 1 2-1.5-.5q.8 2.3-1.5 1.5l-2.5-1.5 1.5-.5q1.5 2.5 3-1Zm205 0 1.5.5-2 1 2.5.5 2-1v1l-4 1q-3-1.5 0-3Zm129 0 1.5.5-.5 1.5 3-1v1l-3 1-2.5-1.5zm152 0v2l3-1 2.5 1.5-.5 1.5 6-1v1l-2.5.5 3.5.5 5-1v1l-8 1-6.5-2.5.5-1.5-3 1q-3-1.5 0-3Zm49 0 2.5 1.5-3.5 1.5-2.5-1.5 1.5-.5 2 1zm-678 1 3.5.5-3.5.5zm403 0 4.5 1.5-2.5.5zm119 0 4.5 1.5-2.5.5zm-1066 1 51.5.5-51.5.5zm106 0 44.5.5-44.5.5zm89 0 44.5.5-44.5.5zm104 0 3.5.5-4 1 4.5.5 4-1v1l-8 1-2.5-1.5zm44 0 5.5 1.5-1.5.5-4-1zm89 0 109.5.5-109.5.5zm210 0v2l6-1v1l-2.5.5 3.5.5q1.2-2.2 6-1v1l-9 1-6.5-2.5zm38 0 3.5 1.5-9.5 2.5v-1l2.5-.5-2-1 2.5-.5 4 1v-1zm25 0 44.5.5-44.5.5zm63 0 44.5.5-44.5.5zm130 0 2.5.5-3 1 4.5.5 3-1v1l-1.5.5 4 1-3.5.5-8.5-2.5zm46 0 3.5 1.5q-1.7 2.3-6.5 1.5l-4.5-1.5 3.5-.5 5 1v-1zm83 0 1.5.5-2 1 3.5.5 3-1v1l-6 1-2.5-1.5zm37 0 2.5 1.5-9.5 2.5v-1l2.5-.5-2-1 2.5-.5 4 1zm31 0 40.5.5-40.5.5zm121 0 3.5 1.5-9.5 2.5v-1l2.5-.5-2-1 2.5-.5 4 1v-1zm25 0 44.5.5-44.5.5zm66 0 44.5.5-44.5.5zm-970 1 8.5 1.5-8.5 1.5v-1l3.5-.5q-4.4.4-3.5-1.5Zm-28 1 26.5.5-26.5.5zm360 0 3.5.5-3.5.5zm240 0 2.5.5-2.5.5zm22 0 3.5.5-3.5.5zm105 0 2.5.5-2.5.5zm16 0 3.5.5-3.5.5zm153 0 3.5.5-3.5.5zm-900 1 2.5.5-2.5.5zm631 0 3.5.5-3.5.5zm96 0 2.5.5-2.5.5zm-717 1 14.5.5-14.5.5zm340 0 12.5.5-12.5.5zm259 0 14.5.5-14.5.5zm126 0 11.5.5-11.5.5zm151 0 12.5.5-12.5.5z" opacity=".149"/><path fill="#231f20" stroke="#231f20" d="m643.5 68 10 3h6l14 5L688 86.5l6 11.5 2 .5-1 2 3 9v19q-3.1 17.4-15.5 25.5l-16 8-8.5 1q1.1 2.7-1.5 2v1l20 4 13 7 9.5 9.5 6 14v24l-1 3 .5 1.5q-2.6-.8-1.5 2.5l-1 2 1 1-3 3-1 4-9.5 11.5-1-1-3 3-11 6h-3l-9 4-12 1-7 2H533V69h109.5zM581 104l-2 2v41l2 1h51l12-6 5-7 1-5v-9l-3-8q-4-6-10-8l-3 1-3-2zm0 79v50h53l14-5q8-5 10-17v-6l-1 2h-1l1-2-1-5q1-5-1-4v-1l-1-2q-5-8-16-10zm430.5-68 2 1h16l2-1 14 4 1.5-.5q-.8 2.6 2.5 1.5 16.5 6 26.5 18.5l12 22 5 21 1 20.5H991.5l-1.5 1.5q.4 23.1 14.5 32.5 8.3 8.7 28 6 11.8-3.7 18.5-12.5l10.5-13.5 31.5 16.5q-6.7 13.3-17.5 22.5l-18 11-25 7-1-1h-22q-17.8-2.2-29.5-10.5l-.5-1.5h-2q-8.8-3.7-13.5-11.5l-9-14-5-15v-5l-2-6v-22l3-16-.5-1.5q3 .9 1.5-3.5l3-8-2.5-1.5-1 1h-9l-5 2h-2q-15.2 1.3-21.5 11.5l-2 5V268h-41.5l-.5-.5V120h41.5l.5.5v12l2.5 1.5 13-9 17-5q6.2 1.8 8-1l1.5 32.5v2q-.7 2.6 2 1.5 6-15.1 18.5-25l15-9q6 0 9-3l9-1zm3.5 31-12 6q-9 7-13 19-1 5 2 6h59l1-1-1-9-5-9-11-10q-8-3-20-2Zm138.5-31 2 1h22l2-1 6 2 11 1 13 4 13.5 9.5 6 10 2 7-1 2h2l-1 1v97l1 1v10l3 9-1.5-.5h-37l-.5-1.5-1-1-1-11-1.5-1.5-2.5 1-5.5 7-11 6-8 3-8 1-3 2-1-1h-17l-10-2-14.5-7q1.1-2.7-1.5-2-7-5.5-10.5-14.5l-2-7-1-13 1-1v-9l3-9 10.5-13.5 18-10 15-5q5.7.7 8-2h6l4-2 2 1 5-2h8l6-2h6l1.5-1.5v-16q-1.5-6.5-6.5-9.5l-6-3-1.5.5-.5-1.5H1160l-.5 2-2-1-8.5 6.5-4 8v4.5h-40.5l-.5-2.5q2.8-1.8 1-8l3-9 10.5-13.5 15-8zm34.5 80-3 2-8 1-10 4-13 3-10 6-6 8v11h2l-1 2 1 2 10 7 2-1v2h16l10-5 7-7 5-11 1-22zm-471-75h42v101.5l3 9 4.5 4.5 5 3 14 1 8-2 7.5-5.5q4.7-4.8 6-13V120h41.5l.5.5V268h-41.5l-.5-.5v-10l-2.5-1.5-15 12h-2l-17 5-1-1h-18q-18.4-2.6-27.5-14.5-4.3-5.2-5-14l-2-2q2.3-1.3 1-6l-1-1zm536 0h42v102.5q1.8 9.3 8.5 13.5l4 2 14 1 5-1 9.5-5 5-7.5 2-7V120h41.5l.5.5V268h-41.5l-.5-.5v-10l-2.5-1.5-15 12h-2l-17 5-1-1h-16l-2 1-3-2-12-3-12.5-10.5-6-14q1.8-6.2-1-8z" opacity=".996"/><path fill="#b09439" stroke="#b09439" d="M48 68h155.5l.5.5V107h-50.5l-1-1-1.5 1.5V270h-49.5l-.5-.5v-162q-1.2-2.7-2.5-.5H48zm158 0h45v63.5l7.5-6.5q8.5-6 20-9l5-1h21q17.5 3.5 26.5 15.5l5 8 4 16V270h-44v-95.5l-3-12-5.5-7.5q-5.2-5.3-16-5-10.8 1.7-15.5 9.5l-5 14v95l-1.5 1.5h-43l-.5-.5zm202.5 47h27l13 3q17.8 6.3 28.5 19.5 19.2 23.6 19 65.5H392.5q-1.2.3-.5 6.5l5 16 8.5 9.5 14 6h12q15.2-3.8 22.5-15.5l7.5-10.5 33.5 16q-6.5 15.8-19.5 26-11.6 9.4-28 14l-11 2h-28q-31.3-5.2-46.5-26.5-9.5-12-13-30l-1-5v-28l1-1 1-11 5-16q6.4-14.6 17.5-24.5 8.5-7.5 20-12zm9.5 32-13 5q-12 7-13 24h59l1-1-2-9-3-6q-6-8-15-12zm990 78h44v45h-44z" opacity=".996"/></svg>