<svg xmlns="http://www.w3.org/2000/svg" width="1500" height="341"><path fill="#fff" stroke="#fff" d="m48.5 67 155.5.5-155.5.5zm158 0 44.5.5-44.5.5zM533 68h108.5l1 1 15 1 22 9 9.5 8.5 8 15 2 10v13l-3 13-10.5 13.5-13 8-16.5 5.5 3.5 1.5 12 1 8 3q8.8 3.3 14.5 9.5-.7 2.3 1.5 1.5 6.3 6.8 9.5 16.5-1.2 4.7 1 6v18l-2 9-8.5 14.5q-2.2-.7-1.5 1.5-6.4 8.1-16.5 12.5l-10 4-8 2h-6l-5 2h-11l-1 1H533l-1-12.5 1-1v-175l-1-4 1-1zm49 36-2 2v39l-1 1 4 2h41l1-1h8l8-3q7-5 9-15l-3-15q-4-7-13-9-6 2-7-1zm0 80-2 2v38l1 1-1 5 1 2h54l8-2 7-4 6-9v-18l-3-7-3-4-10-4zm-291.5-70 4.5.5-4.5.5zm130 0 3.5.5-3.5.5zm593 1h14l21 4 11 5 12.5 9 1.5 3q2.3-.7 1.5 1.5l5 6 9 19 5 22 1 15-1 3.5H992.5l-1-1-.5 9.5 4 13 7.5 9.5 14 7h15l8.5-2q-1.1-2.7 1.5-2l8.5-6 11.5-16 29 16h2.5q-5.5 15.5-18.5 25l-10.5 6q1.3 3-2.5 2l-14 6-15 3h-19l-17-3-18-8-10.5-8-8-10.5-9-19q2.5-1.5-1-3l-3-16v-13l1-1v-9l3-16 3-6V157l-22.5 3-9 3-7.5 6.5-3 9V269h-42.5l-.5-.5v-148l1.5-1.5H912v13.5l1.5 1.5 6.5-4q-1.2-3 2.5-2l12-6h4l8-3h6l1.5 1.5v34l1.5 1.5q4.7-12.3 13-21 2.3.8 1.5-1.5 8.6-8.9 21.5-13.5zm6.5 31-10 2-7 4-7 7-6 14 1 3h60l-1-10-7-11-13-8zm137.5-31 30 1 1 1 11 1 8 4q1.5-2.5 3 1 9.3 3.2 14.5 10.5l4 7 3 11v101l3 16.5h-38.5l-1.5-1.5-2-11q2.3-1.3-.5-2.5-16.2 19.3-52 19l-18-4-18.5-13v-2.5l-4-6-3-11v-17l3-11 11.5-14.5 3.5-1q-1.1-2.7 1.5-2l7-5 19-7h4l8-3 36.5-5q-1.7-3.4-1-10.5l1-3-3-9-3.5-3.5-7-3-11-1-14.5 4v2q-2.7-1.1-2 1.5l-3 4q0 6.5-3.5 9.5h-39l-.5-1.5v-2l1-11q3.2-1.8 3-7l12.5-14.5 14-7zm31.5 80-13 5-23 6-11 6-4 9q-1 9 3 14t12 6h15l11-5 7-8 4-11q-1-6 1-7l-1-9v-2l1-3zm-472-76h43v104.5q1.5 7.6 6.5 11.5 7.3 5.3 22 3 9.1-1.9 13.5-8.5l4-9v-100l1.5-1.5h41l.5.5V269h-42.5l-.5-.5v-11l-3-.5-1.5 3-6 4q-8 5.5-19 8-4.7-1.2-6 1h-18l-15-4-13.5-11.5q.7-2.6-2-1.5v-2.5l-2-2-3-12-1-47 1-1zm536 0h43v104.5l2 7 4.5 4.5q7.3 5.3 22 3 9.3-1.7 13.5-8.5l4-9V119h42.5l.5.5v146l-.5 3.5H1342v-11.5l-1.5-.5-7.5 5q1.1 2.7-1.5 2l-7 4-12 4q-4.7-1.2-6 1h-18l-14-4-11.5-7q-7.2-8.1-10-21.5zm-880.5 12-2 3zm-5 5-1 2zm109 1 1 2zm-190 17 3 4zm9 20 .5 83.5h-1zm52 18 .5 9.5h-1zm142 49-1 2zm-4 5-1 2zm-190 15 .5 8 40 .5-39.5.5-1.5-1.5zm-144 7-1 2-5.5-.5zm-47 1 39.5.5-39.5.5zm102 0 43.5.5-43.5.5zm131 0 2.5.5-2.5.5zm1074 0 2.5.5-2.5.5zm4 0 32.5.5-32.5.5zm-997 4 7.5.5-7.5.5z"/><path stroke="#fff" d="M0 0h1499.5l.5.5V341H.5l-.5-.5zm49 67-2 2v37l2 1h51v163h52V108l1-1h52V70h1v43l-1 1v30l1 1q2 6-1 8v23l1 1q2 6-1 8v71l1 1-1 3 1 5-1 4 2 1h44v-91l2-11 3-7q4-8 14-10 11-1 17 4 6 6 8 17v98h45l1-1V160l-3-17-7-13-12-11-18-5q-35-1-49 17l-1-64h-44l-1 1-1-1zm484 1v8l-1 1 1 4v175l-1 1 1 12h104l1-1h11l5-2h6l8-2 10-4q10-4 16-12-1-3 2-2l8-14 2-9v-18q-2-2-1-6-3-10-9-17-3 1-2-1-6-7-14-10l-8-3-12-1-4-1 17-6 13-8 10-13 3-13v-13l-2-10-8-15-9-9-22-9-15-1-1-1zm-120 46-21 5-16 9q-14 11-22 29l-5 17-1 15-1 1v16l1 1 1 13 7 19 6 9q8 9 19 16l16 7 16 3h20l20-4q15-5 26-15 11-9 16-23l-29-17-4-1-14 18-14 8h-17l-10-5-10-10-4-12v-9h103l1-1-1-1v-16l-4-20q-5-17-15-29-19-25-64-23Zm601 1-22 5q-13 5-22 14 1 2-1 1-9 9-13 21l-2-1v-34l-1-2h-6l-8 3h-4l-12 6q-4-1-3 2l-6 4-2-1v-14h-41l-2 2v148h43v-90l3-9 8-7 9-3 22-3v4l-3 6-3 16v9l-1 1v13l3 16q3 1 1 3l9 19 8 10 11 8 18 8 17 3h19l15-3 14-6q3 1 2-2l11-6q12-9 18-25h-2l-29-16-12 16-10 6 1 3-1-1-8 2h-15l-14-7-8-9-4-13 1-10 1 1h101l1-3-1-15-5-22-9-19-5-6q1-3-1-2l-2-3-12-9-11-5-21-4zm144 0-23 4-14 7-13 15q0 5-3 7l-1 11v2l1 1h39q3-3 3-9l3-4q-1-3 2-2v-2l15-4 11 1 7 3 3 4 3 9-1 3q-1 7 1 10l-36 5-8 3h-4l-24 10q-3 1-1 3l-1-1q-3-1-2 2l-3 1-12 15-3 11v17l3 11 4 6v2l19 13 18 4q35 0 52-19 2 1 0 3l2 11 2 1h38l-3-16V152l-3-11-4-7q-5-8-14-11-2-4-3-1l-8-4-11-1-1-1zm-441 4v73l-1 1 1 47 3 12 2 2v2q3-1 2 2l14 11 15 4h18q1-2 6-1 11-2 19-8l6-4 1-3 3 1v11h43V119h-41l-2 2v100l-4 9q-4 6-13 8-15 2-22-3-6-4-7-11V119zm536 0v122q3 13 10 21l12 7 14 4h18q1-2 6-1l12-4 7-4q2 1 1-2l8-5 1 1v11h43V119h-43v102l-4 9q-4 6-13 8-15 2-22-3l-5-4-2-7V119zm158 105-4 1v44l2 1h44v-44l-3-2-5 1q-5 1-6-1z" opacity="0"/><path stroke="#fff" d="M581.5 104h45q1.5 2.5 7 1 9.3 1.8 13.5 8.5l3 15q-1.6 10.9-9.5 15.5l-8 3h-8l-1 1h-41l-3.5-2.5 1-1v-39zm438 42 10 1 13.5 7.5 7 11 1 10.5h-60.5l-.5-3.5 6-14 6.5-6.5 7-4zm-605 2q21.3-2.2 29.5 8.5 6.5 6.8 7 18.5h-58.5l-.5-1.5q2.6-13.9 12.5-20.5zm167 36h58l10 4 3.5 3.5 3 7v18l-6.5 9.5-7 4-8 2H581l-1-2.5 1-5-1-1v-38zm607 11 2.5 1-1 2.5v2l1 9q-2.5 1.5-1 7l-4 11-7.5 8.5-11 5h-15q-7.8-1.2-11.5-6.5-4-4.5-3-14l4-8.5 10.5-6 23-6z" opacity="0"/><path fill="#8d7b36" stroke="#8d7b36" d="m204.5 67 2.5 1v200.5l-2 .5 1-4.5-1-5 1-3-1-1v-71q2.8-1.7 1-8l-1-1v-23q2.8-1.7 1-8l-1-1v-30l1-1v-43h-1V107h-52.5l-.5.5v160h-1v-161l.5-.5H204zm-157 1 .5 38h52.5l.5.5v161q2.3 1.3-.5 2.5l-.5-163H48.5l-1.5-1.5zm203 0 1 63 6.5-5.5-2.5 3.5q-2.2-.7-1.5 1.5l-4 2.5zm35 46 4.5.5-14.5 3.5 1-2zm10 0q5.8-.7 8.5 1.5l-3.5.5-5-1zm117 0 7.5.5-16.5 2.5v-1zm12 0q7-1.1 10.5 1.5l-3.5.5q-1.5-2.5-7-1zm-119 1q7.5.5 11.5 4.5l-1.5-.5-9-2zm131 0 4.5 1.5-3.5.5zm-36 1 1.5.5-2.5 1.5zm41.5 0 9 3.5-1.5-.5-7.5-1zm-168.5 1 .5 2q-7.3.3-11.5 5l-.5-2zm124 0 .5 2-2-.5zm-3 1-1 2zm-76 1 12.5 10.5-.5 1.5-5-5-1.5.5q2.7-1.8-1.5-3.5l-4.5-2zm73 0-1 2-2 1 1-2zm61 0 11.5 6.5-1.5.5-10.5-5zm-66 2 .5 1.5-5.5 2.5v-1l3-2 1.5.5zm-126 2 .5 2-2-.5zm119 2 .5 1.5-6.5 5.5-.5-1.5q1.2-3.2 5-2.5zm86 1 11.5 10.5-1.5.5-10.5-9.5zm-134 6q2.3-.7 1.5 1.5l3 4-2 .5zm38 2-1 2zm-2 3-3 4-.5-1.5zm109 1 3.5 2.5-.5 1.5zm-141 1 1 2zm1 3q3-.9 1.5 3.5l.5 1.5q-3 .9-1.5-3.5zm26 0 .5 1.5-2.5 3.5-.5-1.5zm118 1q2.3-.7 1.5 1.5l1 2-2-1zm-61 3 7.5 1.5-12.5.5-1 1 1-2zm9 1 7.5 2-.5 2q-1.4-2.6-6-2zm-90 1 1.5 2.5v8l1 1V269l-2-.5v-117zm73 0-1 2-5 3-.5-1.5zm-143 2 2.5.5-7.5 3.5-.5-2zm8 0 3.5 1.5-1.5.5zm161 0 5.5 4.5-1.5.5-4.5-3zm-156 1 4.5 2-.5 2zm122 1 .5 1.5-6.5 5.5zm-142 1 .5 1.5-5.5 4.5zm93.5 1 2 .5q-7.5 13.5-8.5 33.5l-.5-9.5 4-17zm131.5 0q2.6-.8 1.5 2.5l2 3-2 .5zm-198 1 1 2zm156 1 5.5 8.5-2-1-4-6zm-155 2 2.5 1.5-1.5.5zm-34 2-.5 1.5q1.5 4.4-1.5 3.5l.5-1.5zm141 0 .5 1.5-4.5 8.5-.5-1.5zm-105 1q2.3-.7 1.5 1.5 3 4 3 11h-1zm198 0 1 2q-2.8.7-1-2Zm1 3 1.5 2.5-2-1zM252 166l2 .5-2 1zm197.5 0q2.3-.7 1.5 1.5zm42 2 1.5 1.5 2 11h-1zm-239 1 .5 1.5-1.5 2.5-.5-2.5zm198 0q3 1.6 1.5 7l-3-.5 2-.5zm-58 2 .5 1.5-1 2.5 56 .5-57 .5q-1-3.8 1.5-5Zm-141 3 .5 3.5-1 1-.5 91.5-.5-94.5zm243 8 1.5 7.5h-1zm-147 7 1.5 2.5-2 .5zm148 2 .5 10.5 1 1-1.5 1.5H393l1 10.5-2-1-1-9 1.5-1.5H495zm-148 11 2.5 14.5h-1zm114 12 15.5 7-.5 2-14-8-4 5-1.5-.5 3-1.5zm-68.5 2q3.3-1.3 2 3.5l.5 1.5zm-43.5 2 2.5 5.5-2-1zm107 3 1.5.5-13.5 14.5-.5-1.5 4-2.5zm24 3q3.3-1.1 2.5 1.5l-1.5-.5zm930 0h28q1.2 2.3 6 1l5-1 2.5.5 1 2v43l-2.5.5-2.5-.5 4-2v-40l-1.5-1.5H1408v42.5h-1v-43l2.5-.5zm-1059 2q2.6-.8 1.5 2.5l.5 1.5q-2.6.8-1.5-2.5zm46 0q2.3-.7 1.5 1.5l6.5 7.5-6.5-5.5zm87 0 9.5 4.5-1.5.5-8-4zm-131 5 2.5 2.5 2 6-2-1zm140 3 .5 2-2-.5zm-86 1 7.5 4.5-1.5.5-6.5-3zm35 0 .5 1.5-6.5 3.5 1-2zm49 2 1.5.5-2 3.5-2.5 1 1.5-2.5zm-57 2-1 2-12 1-2.5-1.5 14.5-.5zm-76 2q2.3-.7 1.5 1.5l8.5 10.5 3 2 3.5 4.5-13-12zm129 2 1.5.5-3.5 2.5zm-4 5 1.5.5-15.5 13.5-.5-1.5 9-7q-.7-2.2 1.5-1.5zm-188 10 .5 2.5h-1zm81 1 6.5 4-.5 2-6.5-4.5zm91 2 .5 2-3.5 1v-1zm-83 3 2.5 1-.5 2-2.5-1zm75 1q2.3-.7 1.5 1.5l-4 1q-.7-2.2 1.5-1.5zm-71 1q3.4 3.7 9.5 3 1.1 2.7-1.5 2l-8.5-3zm67 1 .5 2-17.5 4v-1q10-1 17-5Zm-56 3q1.2 2.3 6 1l1.5 1.5-1.5.5-5-1zm9 2 9.5 1.5-5.5.5-4-1zm24 0 4.5.5q-3.7 2.3-10.5 1.5v-1q4.8 1.3 6-1Z"/><path fill="#b0953a" stroke="#b0953a" d="M48 68h155.5l.5.5V106h-53v162.5l-.5.5h-48l-1.5-1.5V106H48zm159 0h43v64.5l1.5.5 2.5-4q9.3-8 23.5-12l9-2h13l10 2 10 4 11.5 10.5 5 9 3 11V269h-43v-98.5q-1.8-9.7-7.5-15.5l-6-4-14-1q-8.4 2.2-12.5 8.5l-4 8-2 9V269h-42.5l-.5-.5zm206.5 47h17l19 4q16.5 6 26.5 18.5 19.8 22.9 19 65.5H392.5l-1.5 1.5 1 9 3 9q3.3 7.8 9.5 12.5 8.3 7.7 25 7 16.8-3.2 24.5-15.5l8.5-11.5 31.5 16q-4.7 12.5-14.5 21-2.2-.7-1.5 1.5l-12.5 9.5-17 7-17 3h-18l-1-1-12-1q-3-3-9-3L370 255q1.1-2.7-1.5-2l-6.5-7.5-8-14-5-18-1-21v-2l2-16 7-22q5.9-12 15.5-20.5l9-7 10-5zm6.5 31q-10 2-16 6-10 7-13 21l1 3h60q0-11-5-17-5-8-13-11zm988 80h42.5l1.5 1.5v40l-1.5 1.5H1408z"/></svg>